<svg width="40" height="37" viewBox="0 0 40 37" fill="none" xmlns="http://www.w3.org/2000/svg">
<path d="M16.6667 25.3333C17.5001 25.8458 18.6667 26.1875 20.0001 26.1875C21.3334 26.1875 22.5001 25.8458 23.3334 25.3333" stroke="white" stroke-width="5" stroke-linecap="round" stroke-linejoin="round"/>
<path d="M25 18.5H25.0167" stroke="white" stroke-width="5" stroke-linecap="round" stroke-linejoin="round"/>
<path d="M32.2999 9.63888C33.4684 11.3803 34.2741 13.3501 34.6666 15.425C35.2301 15.7048 35.7054 16.1416 36.038 16.6854C36.3706 17.2293 36.5469 17.8582 36.5469 18.5C36.5469 19.1418 36.3706 19.7707 36.038 20.3146C35.7054 20.8584 35.2301 21.2952 34.6666 21.575C33.9471 25.0147 32.0985 28.0975 29.4294 30.3089C26.7603 32.5204 23.432 33.7267 19.9999 33.7267C16.5678 33.7267 13.2396 32.5204 10.5704 30.3089C7.90131 28.0975 6.05276 25.0147 5.33325 21.575C4.76968 21.2952 4.29439 20.8584 3.96183 20.3146C3.62926 19.7707 3.45288 19.1418 3.45288 18.5C3.45288 17.8582 3.62926 17.2293 3.96183 16.6854C4.29439 16.1416 4.76968 15.7048 5.33325 15.425C6.02369 11.9579 7.85974 8.84112 10.5316 6.60038C13.2035 4.35963 16.5477 3.13214 19.9999 3.125C23.3332 3.125 25.8332 5.00417 25.8332 7.39583C25.8332 9.7875 24.3332 11.6667 22.4999 11.6667C21.1666 11.6667 19.9999 10.9833 19.9999 9.95833" stroke="white" stroke-width="5" stroke-linecap="round" stroke-linejoin="round"/>
<path d="M15 18.5H15.0167" stroke="white" stroke-width="5" stroke-linecap="round" stroke-linejoin="round"/>
</svg>
