<svg width="36" height="41" viewBox="0 0 36 41" fill="none" xmlns="http://www.w3.org/2000/svg">
<path d="M15.1133 35.8504C15.4059 36.3706 15.8266 36.8025 16.3334 37.1028C16.8401 37.4031 17.4149 37.5612 17.9999 37.5612C18.585 37.5612 19.1598 37.4031 19.6665 37.1028C20.1733 36.8025 20.594 36.3706 20.8866 35.8504" stroke="white" stroke-width="5" stroke-linecap="round" stroke-linejoin="round"/>
<path d="M3.43545 25.8002C3.21772 26.0452 3.07404 26.3499 3.02187 26.6771C2.96971 27.0044 3.01131 27.3402 3.14163 27.6436C3.27194 27.9471 3.48534 28.2051 3.75587 28.3863C4.02641 28.5675 4.34241 28.6641 4.66545 28.6644H31.3321C31.6551 28.6645 31.9712 28.5683 32.2419 28.3874C32.5126 28.2065 32.7263 27.9488 32.8569 27.6455C32.9876 27.3423 33.0296 27.0066 32.9778 26.6793C32.9261 26.352 32.7828 26.0472 32.5654 25.8019C30.3488 23.4562 27.9988 20.9633 27.9988 13.2657C27.9988 10.5431 26.9452 7.93197 25.0699 6.00677C23.1945 4.08157 20.6509 3 17.9988 3C15.3466 3 12.8031 4.08157 10.9277 6.00677C9.05235 7.93197 7.99878 10.5431 7.99878 13.2657C7.99878 20.9633 5.64712 23.4562 3.43545 25.8002Z" stroke="white" stroke-width="5" stroke-linecap="round" stroke-linejoin="round"/>
</svg>
