<svg width="33" height="34" viewBox="0 0 33 34" fill="none" xmlns="http://www.w3.org/2000/svg">
<g clip-path="url(#clip0_33_133)">
<path d="M16.0265 4.20694H6.67767C5.96926 4.20694 5.28986 4.50243 4.78893 5.0284C4.28801 5.55437 4.00659 6.26774 4.00659 7.01158V26.644C4.00659 27.3879 4.28801 28.1012 4.78893 28.6272C5.28986 29.1532 5.96926 29.4487 6.67767 29.4487H25.3752C26.0837 29.4487 26.7631 29.1532 27.264 28.6272C27.7649 28.1012 28.0463 27.3879 28.0463 26.644V16.8278" stroke="white" stroke-width="4.00662" stroke-linecap="round" stroke-linejoin="round"/>
<path d="M24.5405 3.68107C25.0718 3.1232 25.7925 2.80978 26.5438 2.80978C27.2952 2.80978 28.0158 3.1232 28.5472 3.68107C29.0785 4.23895 29.377 4.99559 29.377 5.78455C29.377 6.57351 29.0785 7.33015 28.5472 7.88803L16.5099 20.5285C16.1928 20.8612 15.801 21.1047 15.3707 21.2367L11.5337 22.4146C11.4188 22.4498 11.297 22.4519 11.181 22.4207C11.065 22.3895 10.9592 22.3262 10.8745 22.2373C10.7899 22.1484 10.7296 22.0373 10.6998 21.9155C10.6701 21.7938 10.6721 21.6659 10.7057 21.5452L11.8275 17.5163C11.9538 17.0649 12.1862 16.654 12.5033 16.3216L24.5405 3.68107Z" stroke="white" stroke-width="4.00662" stroke-linecap="round" stroke-linejoin="round"/>
</g>
<defs>
<clipPath id="clip0_33_133">
<rect width="32.053" height="33.6556" fill="white"/>
</clipPath>
</defs>
</svg>
