<svg width="40" height="41" viewBox="0 0 40 41" fill="none" xmlns="http://www.w3.org/2000/svg">
<g clip-path="url(#clip0_33_94)">
<path d="M28.3334 35.875V32.4583C28.3334 30.646 27.631 28.9079 26.3808 27.6264C25.1306 26.3449 23.4349 25.625 21.6667 25.625H8.33341C6.5653 25.625 4.86961 26.3449 3.61937 27.6264C2.36913 28.9079 1.66675 30.646 1.66675 32.4583V35.875" stroke="white" stroke-width="5" stroke-linecap="round" stroke-linejoin="round"/>
<path d="M14.9999 18.7917C18.6818 18.7917 21.6666 15.7323 21.6666 11.9583C21.6666 8.18439 18.6818 5.125 14.9999 5.125C11.318 5.125 8.33325 8.18439 8.33325 11.9583C8.33325 15.7323 11.318 18.7917 14.9999 18.7917Z" stroke="white" stroke-width="5" stroke-linecap="round" stroke-linejoin="round"/>
<path d="M38.3333 35.875V32.4583C38.3322 30.9443 37.8405 29.4735 36.9355 28.2769C36.0305 27.0802 34.7635 26.2256 33.3333 25.8471" stroke="white" stroke-width="5" stroke-linecap="round" stroke-linejoin="round"/>
<path d="M26.6667 5.34708C28.1008 5.72342 29.3718 6.57827 30.2795 7.77686C31.1871 8.97544 31.6798 10.4496 31.6798 11.9669C31.6798 13.4842 31.1871 14.9583 30.2795 16.1569C29.3718 17.3555 28.1008 18.2103 26.6667 18.5867" stroke="white" stroke-width="5" stroke-linecap="round" stroke-linejoin="round"/>
</g>
<defs>
<clipPath id="clip0_33_94">
<rect width="40" height="41" fill="white"/>
</clipPath>
</defs>
</svg>
