<svg width="40" height="41" viewBox="0 0 40 41" fill="none" xmlns="http://www.w3.org/2000/svg">
<path d="M31.6667 11.9583V6.83333C31.6667 6.38026 31.4911 5.94573 31.1785 5.62536C30.866 5.30498 30.442 5.125 30 5.125H8.33333C7.44928 5.125 6.60143 5.48497 5.97631 6.12572C5.35119 6.76647 5 7.63551 5 8.54167C5 9.44782 5.35119 10.3169 5.97631 10.9576C6.60143 11.5984 7.44928 11.9583 8.33333 11.9583H33.3333C33.7754 11.9583 34.1993 12.1383 34.5118 12.4587C34.8244 12.7791 35 13.2136 35 13.6667V20.5M35 20.5H30C29.1159 20.5 28.2681 20.86 27.643 21.5007C27.0179 22.1415 26.6667 23.0105 26.6667 23.9167C26.6667 24.8228 27.0179 25.6919 27.643 26.3326C28.2681 26.9734 29.1159 27.3333 30 27.3333H35C35.442 27.3333 35.866 27.1533 36.1785 26.833C36.4911 26.5126 36.6667 26.0781 36.6667 25.625V22.2083C36.6667 21.7553 36.4911 21.3207 36.1785 21.0004C35.866 20.68 35.442 20.5 35 20.5Z" stroke="white" stroke-width="5" stroke-linecap="round" stroke-linejoin="round"/>
<path d="M5 8.54169V32.4584C5 33.3645 5.35119 34.2336 5.97631 34.8743C6.60143 35.515 7.44928 35.875 8.33333 35.875H33.3333C33.7754 35.875 34.1993 35.695 34.5118 35.3747C34.8244 35.0543 35 34.6198 35 34.1667V27.3334" stroke="white" stroke-width="5" stroke-linecap="round" stroke-linejoin="round"/>
</svg>
