<svg width="40" height="41" viewBox="0 0 40 41" fill="none" xmlns="http://www.w3.org/2000/svg">
<path d="M24.9999 3.41669H14.9999C14.0794 3.41669 13.3333 4.18153 13.3333 5.12502V8.54169C13.3333 9.48517 14.0794 10.25 14.9999 10.25H24.9999C25.9204 10.25 26.6666 9.48517 26.6666 8.54169V5.12502C26.6666 4.18153 25.9204 3.41669 24.9999 3.41669Z" stroke="white" stroke-width="5" stroke-linecap="round" stroke-linejoin="round"/>
<path d="M26.6667 6.83331H30.0001C30.8841 6.83331 31.732 7.19328 32.3571 7.83403C32.9822 8.47478 33.3334 9.34382 33.3334 10.25V34.1666C33.3334 35.0728 32.9822 35.9418 32.3571 36.5826C31.732 37.2233 30.8841 37.5833 30.0001 37.5833H10.0001C9.11603 37.5833 8.26818 37.2233 7.64306 36.5826C7.01794 35.9418 6.66675 35.0728 6.66675 34.1666V10.25C6.66675 9.34382 7.01794 8.47478 7.64306 7.83403C8.26818 7.19328 9.11603 6.83331 10.0001 6.83331H13.3334" stroke="white" stroke-width="5" stroke-linecap="round" stroke-linejoin="round"/>
<path d="M15 23.9167H25" stroke="white" stroke-width="5" stroke-linecap="round" stroke-linejoin="round"/>
</svg>
