<?xml version="1.0" encoding="UTF-8"?>
<svg id="Layer_1" data-name="Layer 1" xmlns="http://www.w3.org/2000/svg" viewBox="0 0 1168.47 1047.1">
  <defs>
    <style>
      .cls-1 {
        fill: #28282a;
      }

      .cls-1, .cls-2, .cls-3 {
        fill-rule: evenodd;
      }

      .cls-2 {
        fill: #d03311;
      }

      .cls-3 {
        fill: #f0f1f2;
      }
    </style>
  </defs>
  <path class="cls-3" d="M716.79,136.41c-12.46,2.9-41.48,28.85-50.34,38.01-8.77,9.07-34.55,47.33-39.01,50.31-9.14-2.44-20.36-43.18-41.24-43.18h-7.86c-7.45,0-14.73,8.97-14.73,15.7,0,40.93,48.11,44.22,48.11,68.69v1.96c0,2.26-.68,2.94-2.95,2.94-4.8,0-8.09-10.79-15.71-10.79h-2.95c-6.99,0-12.76,5.15-12.76,11.78v6.87c0,5.8,11.16,10.91,15.31,14.14,2.84,2.21,12.18,13.92,12.18,17.27v1.96c0,6.15-16.59,27.23-20.44,33.55-6.54,10.74-12.17,24.38-17.16,36.83-9.82,24.51-19.35,54.75-19.35,88.6v9.81c0,26.93,14.93,58.22,24.85,76.24,11.66,21.19,32.54,35.47,56.22,44.89,25.71,10.23,46.02,18.56,74.49,26.63,21.36,6.06,55.92,21.03,80.09,21.03h1.96c6.41,0,17.19-6.87,24.55-6.87h3.93c2.91,0,43.62,20.11,51.67,22.95,11.21,3.94,44.56,18.65,44.56,30.05l.38,6.94-3.33,21.52v6.87c0,9.52,9.56,16.68,18.66,16.68h2.95c9.18,0,19.64-12.74,19.64-21.59,0-8.14-4.91-19.35-4.91-21.59,0-31.85,47.59-22.86,71.24-30.86,27.87-9.43,48.14-17.03,72.77-29.33,17.83-8.91,41.69-33.09,51.8-50.29,6.45-10.97,13.56-20.96,18.12-32.92,2.9-7.62,10.93-31.37,10.93-40.11v-9.81c0-33.13-3.86-41.09-15.06-63.46-10.95-21.88-17.03-29.74-34.29-45.22-14.28-12.81-29.17-23.13-45.51-34.01-6.3-4.2-47.52-27.43-47.52-31.99,0-6.97,15.05-12.76,23.57-12.76,22.43,0,46.15,1.46,46.15-24.53,0-6.96-10.21-13.74-17.67-13.74h-7.86c-11.49,0-26.1,13.74-35.35,13.74-4.04,0-9.82-3.85-9.82-7.85,0-18.16,24.55-21.94,24.55-33.37v-9.81c0-4.8-8.52-7.85-13.75-7.85-16.02,0-23.2,22.79-32.77,23.56l-2.58-56.93c-.81-25.7,29.46-68.88,29.46-92.25,0-18.17-19.04-55.43-27.06-67.16-8.24-12.05-39.84-36.82-60.37-34.21l-25.49,3.24h-15.71c-18.9,0-39.88-16.68-66.77-16.68h-.98c-62.76,0-104.5,83.45-116.85,136.41h0ZM942.63,184.49l-.36,48.12,6.25,79.46v15.7c0,27.22-42.01,42.2-70.7,42.2h-15.71c-20.37,0-29.26-18.46-32.28-36.43-2.49-14.85-8.96-46.25-8.96-60.72-6.04.5-41.24,65.79-41.24,77.53v9.81c0,19.52,17.08,23.55,36.33,23.55h12.77l.18,1.32,113.72-15.06h1.96c34.06,0,57.94,8.37,72.67,27.47,15.59,20.22,16.68,48.19,16.68,83.42v2.94c0,32.6-23.52,68.69-42.07,83.57-16.1,12.91-62.46,35.18-90.49,35.18h-23.57c-50.97,0-111.33-53.97-113.9-53.97-14.17,0-22.56,29.44-32.4,29.44-1.33,0-33.27-16.31-41.74-19.12-19.95-6.64-30.66-3.22-40.42-21.43-12.87-24.02-25.85-60.54-25.85-96.84v-12.76c0-34.92,15.08-57.7,50.1-53.99,18.62,1.97,55.44,24.77,72.64,33.39,20.36,10.2,131.28,59.86,152.2,59.86,2.27-8.5,5.89-10.89,5.89-24.53v-2.94c0-16.08-3.29-19.27-5.81-30.94l-33.3-5.42-.17,1.04-24.59-.58-43.16,3.52h-26.51c-15.8,0-40.97-14.34-48.27-23.39-12.04-14.94-17.52-28.46-17.52-55.11,0-13.5,5.85-49.24,8.26-65.35,3.38-22.62,10.08-37.63,17.68-55.93,7.82-18.82,16.42-30.54,31.7-41.92,14.57-10.85,41.92-9.77,56.27-17.36,0-19.41,7.46-51.29,12.04-68.44,4.97-18.63,10.09-47.36,34.11-47.36h4.91c12.54,0,30.99,8.86,51.03,8.86,21.09,0,40.29-.85,40.29,19.6v13.74c0,16.24-5.25,40.17-7.97,55.82-2.51,14.44-10.69,41.97-10.69,54.09h0ZM578.34,468.1c0-23,7.14-57.31,12.86-75.47,2.27-7.21,8.22-27.57,11.65-32.52,8-11.55,15.59-11.36,26.54-17.63,14.56-8.34,9.87-13.4,11.93-32.24,1.47-13.51,3.86-25.17,6.34-37.83,6.42-32.76,10.91-39.79,23.32-65.02,8.08-16.43,26.22-37.43,39.69-48.65,7.88-6.56,18.62-10.92,28.39-15.79,11.59-5.79,13.8-12.95,16.6-27.57,6.76-35.27,38.73-99.68,77-99.68h3.93c12.52,0,40.53,8.45,53.21,11.59,17.17,4.25,43.51.29,60.97,3.83,14.69,2.98,31.9,15.63,38.82,25.97,6.08,9.09,20.8,29.56,20.8,43v11.78c0,4.83-11.86,39.89-14.12,46.73-4.46,13.49-11.41,32.69-11.41,49.44v23.55c0,25.75,4.43,80.01,9.58,100.34,4.9,19.34,11.61,18.69,28.06,26.91,12.33,6.16,23.1,12.32,34.61,19.38,24.15,14.82,42.75,28.23,60.6,49.35,13.67,16.18,32.11,48.19,32.11,76.83v10.79c0,21.6-18.16,52.13-28.05,65.2-14.32,18.92-26.79,32.19-48.22,44.05-38.39,21.25-89.84,35.99-148.59,35.99h-.98c-37.43,0-98.02-46.12-120.78-46.12h-1.96c-12.65,0-18.44,14.48-36.05,11.5-13.4-2.26-26.91-6.35-39.76-9.33-24.13-5.61-53.47-15.03-74.56-23.62-39.81-16.2-72.52-67.55-72.52-123.79v-.98Z"/>
  <path class="cls-3" d="M80.52,329.73c0,17.84,35.35,24.77,35.35,52.99v.98c0,12.73-9.4,28.46-19.64,28.46h-.98c-14.83,0-13.22-30.5-33.38-27.48-16.92,2.11-18.34,19.52-6.65,31.18,5.36,5.35,22.36,15.44,22.36,21.81v9.81l-3.55,23.47.61,4.01c0,23.29,25.06,19.46,32.4,30.42,0,67.73.13,121.5,10.39,179.02,4.85,27.18,12.15,51.96,19.93,75.28,7.06,21.18,15.56,51.16,44.31,49.92l33.38-1.21c.43,2.01,1.16,3.21.99,4.15l-5.57,30.31c-.28,5.5,10.46,18.76,19.32,18.76h1.96c10.5,0,19.64-10.61,19.64-21.59s-7.86-25.8-7.86-38.27c0-19.58,33.85-37.6,48.11-45.14,26.67,39.8,47.36,73.02,77.43,110.06,13.85,17.06,32.05,31.03,49.94,44.3,21.56,16,34.65,21.91,34.65,58.6,0,13.26-5.89,27.11-5.89,36.31v12.76c0,16.51,7.46,28.46,23.57,28.46,14.49,0,20.35-15.86,18.66-31.4-1.77-16.23-9.82-29.23-9.82-42.2v-12.76c0-14.97,6.39-27.26,15.7-33.38,4.62-3.04,27.08-14.71,33.4-14.71h5.89c12.87,0-.81,44.16,20.62,44.16h2.95c6.56,0,12.76-6.98,12.76-13.74,0-14.32-10.8-17.85-10.8-32.38v-10.79c0-26.39,17.61-43.24,29.32-58.03,12.92-16.32,25.86-30.9,38.57-47.81,22.18-29.51,39.13-82.98,39.13-134.59v-.98c0-11.49-7.16-25.52-17.67-25.52h-2.95c-14.63,0-35.54,15.7-42.22,15.7h-6.87c-13.86,0-65.95-30.47-78.14-37.71-15.46-9.18-56.96-37.85-64.24-51.6,27.8-41.48,38.29-36.35,38.29-106.97,19.37-10.25,53.02-49.24,53.02-77.53,0-25.28-27.06-28.81-44.2-37.28-19.34-9.55-35.13-17.21-52.82-28.66-12.12-7.85-38.99-24.34-48.06-33.42-10.51-10.51-31.54-29.2-51.3-29.2h-8.84c-36.34,0-67.99,42.94-85.58,64.61-10.47,12.9-22.83,28.54-40.66,33.95-13.1,3.98-43.35,17.24-57.38,17.24h-9.82c-7.97,0-21.74-19.21-23.98-29.03-3.16-13.87-6.92-28.87-23.15-28.87h-.98c-13.32,0-19.64,11.32-19.64,25.52h0ZM275.92,974.48h-3.93c-5.48,0-13.75-7.67-13.75-13.74v-3.93c0-6.51,14.19-55.09,16.69-56.92.37,16.52,15.71,39.58,15.71,53.97v4.91c0,6.16-8.03,15.7-14.73,15.7h0ZM407.49,407.26c0,34.88,39.28,39.32,39.28,78.51v2.94c0,16.05-44.58,46.22-58.91,50.05,3.11,11.66,79.47,78.91,93.42,90.14,20.1,16.17,83.85,71.78,112.78,71.78,16.42,0,26.06-9.81,30.44-9.81,3.45,0,3.93,4.35,3.93,7.85v4.91c0,12.17-29.28,62.07-36.18,70.81-11.22,14.22-35.56,48.92-58.08,48.92-46.36,0-85.86-86.27-105.86-118.93-5.72-9.34-15.22-26.33-19.42-36.53-7.23-17.58-12.67-20.79-22.03-33.92-8.13-11.41-40.67-57.91-54.97-57.91-3.28,0-9.82,3.29-9.82,6.87v3.93l-1.12.19,9.96,60.65v.98c0,22.82-39.9,52.99-62.84,52.99h-2.95c-21.51,0-37.26-114.2-36.64-147.21l2.27-92.24c.39-14.03-1.83-40.86-6.17-49.78-3.82-7.86-28.28-17.05-39-17.94v-1.96c8.66-.72,33.78-12.33,51.48-15.28,19.5-3.25,36.97-8.08,55.53-11.23,21.32-3.62,32.32-8.74,35.98-30.77,1.58-9.48.32-21.33,1.88-31.49,1.16-7.55,6.46-21.13,13.22-21.13,14.97,0,29.82,15.16,38.98,22.87,11.46,9.65,23.23,18.47,35.35,27.48,21,15.6,57.13,31.33,85.72,38.96v4.91c-19.93,10.54-96.23-.87-96.23,30.42h0ZM97.21,462.22c0-19.21,33.93-54.14,45.39-65.52,14.99-14.89,50.28-30.05,73.29-37.65,14.89-4.92,28.01-7.16,37.03-18.93,7.57-9.87,16.79-20.78,25.2-29.77,13.05-13.95,39.13-47.35,63.58-47.35h10.8c10.51,0,35.9,21.95,43.5,28.16,10.62,8.67,30.51,21.98,42.58,29.08,15.55,9.14,30.29,16.62,46.8,24.87,8.03,4.01,43.86,18.64,43.86,26.82v2.94c0,10.96-22.95,33.1-30.2,39.5-6.68,5.9-12.19,10.48-18.63,16.71-11.02,10.64-9.1,3.99-9.1,25.25,0,27.12-3.21,38.59-15.99,53.69-4.1,4.85-33.1,33.73-33.1,36.59,0,8.21,67.93,65.61,78.55,72.62,18.55,12.25,76.97,47.1,104.09,47.1,15.89,0,25.89-14.72,37.31-14.72h2.95c3.06,0,4.91,4.85,4.91,7.85v6.87c0,21.94-9.25,63-15.57,78.65-7.2,17.84-24.71,43.09-36.7,56.55-7.07,7.93-12.92,18.25-20.63,26.48-8.37,8.93-15.09,15.07-23.57,23.55-12.18,12.18-36.48,33.18-52.29,40.97-31.55,15.56-47.93.74-67.83-13.66-18.84-13.64-35.12-25.59-48.13-45.12-13.45-20.2-23.63-36.5-36.41-57.82-7.59-12.67-25.46-51.58-38.61-54.64-6.78,3.59-18.72,12.47-26.71,17.47-9.39,5.87-16.96,10.41-26.89,16.31-15.47,9.18-38.05,27.07-60.31,27.07-25.63,0-37.05-92.81-43.4-119.53-2.68-11.27-3.8-22.53-6.11-35.11-2.36-12.87-.03-25.86-1.96-38.27-3.77-24.27.41-54.4.41-77.94v-7.85c0-36.17-48.11-13.93-48.11-41.22Z"/>
  <path class="cls-3" d="M0,309.13c0,16.68,17.07,27.81,29.32,32.52,12.09,4.65,28.78,16.3,39.41,23.42-1.57-6.73-15.26-31.5-19.31-39.59-2.31-4.61-5.87-13.43-10.29-20.93-6.51-11.05-25.04-20.88-35-7.59-2.59,3.45-4.14,8.02-4.14,12.17Z"/>
  <path class="cls-1" d="M315.19,510.3c21.99,0,65.79-5.97,65.79-25.51v-7.85c0-21.13-69.34-70.66-88.37-70.66h-.98c-6.36,0-1.55,19.36-.84,26.36.93,9.28,2.51,20.94,2.8,31.55.53,19.1,1.62,46.12,21.61,46.12Z"/>
  <path class="cls-3" d="M1085.01,265.95c17.2-4,35.52-7.34,52.96-10.86,24.02-4.85,19.95-32.32,1.05-32.32h-4.91c-8.82,0-20.44,15.11-25.77,20.37-3.43,3.38-22.29,21.27-23.33,22.81Z"/>
  <path class="cls-1" d="M1147.85,235.74c0,12.31-18.41,10.5-28.52,12.83,1.04-3.89,13.61-17.63,19.57-17.63,3.24,0,8.94,2.2,8.94,4.8Z"/>
  <path class="cls-1" d="M279.66,956.16v3.89c0,4.93-4.02,8.81-8.81,8.81-3.37,0-5.96-5.44-5.96-8.81v-2.98c0-4.54,6.35-13.35,6.87-20.61,1.81,2.07,7.91,16.46,7.91,19.7Z"/>
  <path class="cls-1" d="M39.61,331.01c-4.93-2.46-20.61-8.94-26.83-15.04-5.44-5.44-4.15-18.28,5.31-18.28,8.81,0,11.28,5.31,13.87,12.18l7.65,21.13Z"/>
  <g>
    <path class="cls-2" d="M624.97,691.22c-4.41,0-14,9.72-30.46,9.72-28.9,0-92.68-55.61-112.77-71.68-14-11.28-90.34-78.55-93.46-90.21,14.39-3.76,58.98-33.96,58.98-50.03v-2.98c0-39.15-39.27-43.55-39.27-78.42,0-31.37,76.22-19.96,96.18-30.46v-4.93c-28.65-7.65-64.68-23.33-85.68-39.02-12.18-8.94-23.98-17.76-35.39-27.35-9.2-7.78-23.98-22.94-39.01-22.94-6.74,0-12.06,13.61-13.22,21.13-1.56,10.24-.26,22.04-1.81,31.5-3.76,22.04-14.65,27.22-36.03,30.72-18.54,3.24-36.03,8.04-55.48,11.28-17.76,2.98-42.9,14.52-51.46,15.29v1.94c10.63.91,35.13,10.11,38.89,18.02,4.41,8.81,6.61,35.65,6.22,49.77l-2.33,92.16c-.52,33.05,15.17,147.25,36.68,147.25h2.98c22.94,0,62.86-30.2,62.86-53.01v-.91l-9.98-60.66,1.17-.26v-3.89c0-3.63,6.48-6.87,9.72-6.87,14.39,0,46.92,46.53,54.96,57.94,9.46,13.09,14.91,16.33,22.04,33.83,4.28,10.24,13.74,27.22,19.44,36.55,19.96,32.66,59.5,118.99,105.9,118.99,22.55,0,46.79-34.74,58.07-49,6.87-8.68,36.16-58.59,36.16-70.77v-4.93c0-3.5-.52-7.78-3.89-7.78ZM377.65,321.03c4.15,2.72,37.2,21.78,37.2,23.72v1.04c0,1.56-.65,2.85-2.07,2.85-5.19,0-34.48-18.92-39.27-22.55-7.65-5.7-25.92-23.85-28.39-33.31,12.96,6.87,20.22,19.96,32.53,28.26ZM286.14,660.76c0,3.63-4.54,11.8-7.78,11.8h-2.07c-19.44,0-31.37-107.45-31.37-137.4,2.33,2.59,10.89,53.79,16.33,65.07,6.87,14,24.89,37.59,24.89,56.64v3.89ZM381.41,485.13c0,19.57-43.81,25.54-65.85,25.54-19.96,0-21-27.09-21.52-46.14-.26-10.63-1.94-22.29-2.85-31.63-.65-7-5.44-26.31.91-26.31h.91c19.05,0,88.4,49.51,88.4,70.64v7.91ZM384.4,521.42c8.81-7.78,18.67-14.39,22.29-27.87,2.2-8.43,3.24-37.85,12.05-37.85h.91c6.35,0,14.78,8.42,14.78,14.65v8.81c0,18.67-31.89,40.7-50.03,42.26ZM537.6,800.1c0,2.59-.52,2.72-1.04,4.93-13.35,0-42.77-29.29-49.9-38.37-8.3-10.37-27.74-44.98-27.74-61.7,11.92,7.91,21.78,37.85,33.7,50.81,7,7.52,13.87,13.61,21.65,20.48,3.63,3.37,23.33,17.37,23.33,19.96v3.89ZM624.97,691.22c-4.41,0-14,9.72-30.46,9.72-28.9,0-92.68-55.61-112.77-71.68-14-11.28-90.34-78.55-93.46-90.21,14.39-3.76,58.98-33.96,58.98-50.03v-2.98c0-39.15-39.27-43.55-39.27-78.42,0-31.37,76.22-19.96,96.18-30.46v-4.93c-28.65-7.65-64.68-23.33-85.68-39.02-12.18-8.94-23.98-17.76-35.39-27.35-9.2-7.78-23.98-22.94-39.01-22.94-6.74,0-12.06,13.61-13.22,21.13-1.56,10.24-.26,22.04-1.81,31.5-3.76,22.04-14.65,27.22-36.03,30.72-18.54,3.24-36.03,8.04-55.48,11.28-17.76,2.98-42.9,14.52-51.46,15.29v1.94c10.63.91,35.13,10.11,38.89,18.02,4.41,8.81,6.61,35.65,6.22,49.77l-2.33,92.16c-.52,33.05,15.17,147.25,36.68,147.25h2.98c22.94,0,62.86-30.2,62.86-53.01v-.91l-9.98-60.66,1.17-.26v-3.89c0-3.63,6.48-6.87,9.72-6.87,14.39,0,46.92,46.53,54.96,57.94,9.46,13.09,14.91,16.33,22.04,33.83,4.28,10.24,13.74,27.22,19.44,36.55,19.96,32.66,59.5,118.99,105.9,118.99,22.55,0,46.79-34.74,58.07-49,6.87-8.68,36.16-58.59,36.16-70.77v-4.93c0-3.5-.52-7.78-3.89-7.78ZM377.65,321.03c4.15,2.72,37.2,21.78,37.2,23.72v1.04c0,1.56-.65,2.85-2.07,2.85-5.19,0-34.48-18.92-39.27-22.55-7.65-5.7-25.92-23.85-28.39-33.31,12.96,6.87,20.22,19.96,32.53,28.26ZM286.14,660.76c0,3.63-4.54,11.8-7.78,11.8h-2.07c-19.44,0-31.37-107.45-31.37-137.4,2.33,2.59,10.89,53.79,16.33,65.07,6.87,14,24.89,37.59,24.89,56.64v3.89ZM381.41,485.13c0,19.57-43.81,25.54-65.85,25.54-19.96,0-21-27.09-21.52-46.14-.26-10.63-1.94-22.29-2.85-31.63-.65-7-5.44-26.31.91-26.31h.91c19.05,0,88.4,49.51,88.4,70.64v7.91ZM384.4,521.42c8.81-7.78,18.67-14.39,22.29-27.87,2.2-8.43,3.24-37.85,12.05-37.85h.91c6.35,0,14.78,8.42,14.78,14.65v8.81c0,18.67-31.89,40.7-50.03,42.26ZM537.6,800.1c0,2.59-.52,2.72-1.04,4.93-13.35,0-42.77-29.29-49.9-38.37-8.3-10.37-27.74-44.98-27.74-61.7,11.92,7.91,21.78,37.85,33.7,50.81,7,7.52,13.87,13.61,21.65,20.48,3.63,3.37,23.33,17.37,23.33,19.96v3.89ZM624.97,691.22c-4.41,0-14,9.72-30.46,9.72-28.9,0-92.68-55.61-112.77-71.68-14-11.28-90.34-78.55-93.46-90.21,14.39-3.76,58.98-33.96,58.98-50.03v-2.98c0-39.15-39.27-43.55-39.27-78.42,0-31.37,76.22-19.96,96.18-30.46v-4.93c-28.65-7.65-64.68-23.33-85.68-39.02-12.18-8.94-23.98-17.76-35.39-27.35-9.2-7.78-23.98-22.94-39.01-22.94-6.74,0-12.06,13.61-13.22,21.13-1.56,10.24-.26,22.04-1.81,31.5-3.76,22.04-14.65,27.22-36.03,30.72-18.54,3.24-36.03,8.04-55.48,11.28-17.76,2.98-42.9,14.52-51.46,15.29v1.94c10.63.91,35.13,10.11,38.89,18.02,4.41,8.81,6.61,35.65,6.22,49.77l-2.33,92.16c-.52,33.05,15.17,147.25,36.68,147.25h2.98c22.94,0,62.86-30.2,62.86-53.01v-.91l-9.98-60.66,1.17-.26v-3.89c0-3.63,6.48-6.87,9.72-6.87,14.39,0,46.92,46.53,54.96,57.94,9.46,13.09,14.91,16.33,22.04,33.83,4.28,10.24,13.74,27.22,19.44,36.55,19.96,32.66,59.5,118.99,105.9,118.99,22.55,0,46.79-34.74,58.07-49,6.87-8.68,36.16-58.59,36.16-70.77v-4.93c0-3.5-.52-7.78-3.89-7.78ZM377.65,321.03c4.15,2.72,37.2,21.78,37.2,23.72v1.04c0,1.56-.65,2.85-2.07,2.85-5.19,0-34.48-18.92-39.27-22.55-7.65-5.7-25.92-23.85-28.39-33.31,12.96,6.87,20.22,19.96,32.53,28.26ZM286.14,660.76c0,3.63-4.54,11.8-7.78,11.8h-2.07c-19.44,0-31.37-107.45-31.37-137.4,2.33,2.59,10.89,53.79,16.33,65.07,6.87,14,24.89,37.59,24.89,56.64v3.89ZM381.41,485.13c0,19.57-43.81,25.54-65.85,25.54-19.96,0-21-27.09-21.52-46.14-.26-10.63-1.94-22.29-2.85-31.63-.65-7-5.44-26.31.91-26.31h.91c19.05,0,88.4,49.51,88.4,70.64v7.91ZM384.4,521.42c8.81-7.78,18.67-14.39,22.29-27.87,2.2-8.43,3.24-37.85,12.05-37.85h.91c6.35,0,14.78,8.42,14.78,14.65v8.81c0,18.67-31.89,40.7-50.03,42.26ZM537.6,800.1c0,2.59-.52,2.72-1.04,4.93-13.35,0-42.77-29.29-49.9-38.37-8.3-10.37-27.74-44.98-27.74-61.7,11.92,7.91,21.78,37.85,33.7,50.81,7,7.52,13.87,13.61,21.65,20.48,3.63,3.37,23.33,17.37,23.33,19.96v3.89ZM624.97,691.22c-4.41,0-14,9.72-30.46,9.72-28.9,0-92.68-55.61-112.77-71.68-14-11.28-90.34-78.55-93.46-90.21,14.39-3.76,58.98-33.96,58.98-50.03v-2.98c0-39.15-39.27-43.55-39.27-78.42,0-31.37,76.22-19.96,96.18-30.46v-4.93c-28.65-7.65-64.68-23.33-85.68-39.02-12.18-8.94-23.98-17.76-35.39-27.35-9.2-7.78-23.98-22.94-39.01-22.94-6.74,0-12.06,13.61-13.22,21.13-1.56,10.24-.26,22.04-1.81,31.5-3.76,22.04-14.65,27.22-36.03,30.72-18.54,3.24-36.03,8.04-55.48,11.28-17.76,2.98-42.9,14.52-51.46,15.29v1.94c10.63.91,35.13,10.11,38.89,18.02,4.41,8.81,6.61,35.65,6.22,49.77l-2.33,92.16c-.52,33.05,15.17,147.25,36.68,147.25h2.98c22.94,0,62.86-30.2,62.86-53.01v-.91l-9.98-60.66,1.17-.26v-3.89c0-3.63,6.48-6.87,9.72-6.87,14.39,0,46.92,46.53,54.96,57.94,9.46,13.09,14.91,16.33,22.04,33.83,4.28,10.24,13.74,27.22,19.44,36.55,19.96,32.66,59.5,118.99,105.9,118.99,22.55,0,46.79-34.74,58.07-49,6.87-8.68,36.16-58.59,36.16-70.77v-4.93c0-3.5-.52-7.78-3.89-7.78ZM377.65,321.03c4.15,2.72,37.2,21.78,37.2,23.72v1.04c0,1.56-.65,2.85-2.07,2.85-5.19,0-34.48-18.92-39.27-22.55-7.65-5.7-25.92-23.85-28.39-33.31,12.96,6.87,20.22,19.96,32.53,28.26ZM286.14,660.76c0,3.63-4.54,11.8-7.78,11.8h-2.07c-19.44,0-31.37-107.45-31.37-137.4,2.33,2.59,10.89,53.79,16.33,65.07,6.87,14,24.89,37.59,24.89,56.64v3.89ZM381.41,485.13c0,19.57-43.81,25.54-65.85,25.54-19.96,0-21-27.09-21.52-46.14-.26-10.63-1.94-22.29-2.85-31.63-.65-7-5.44-26.31.91-26.31h.91c19.05,0,88.4,49.51,88.4,70.64v7.91ZM384.4,521.42c8.81-7.78,18.67-14.39,22.29-27.87,2.2-8.43,3.24-37.85,12.05-37.85h.91c6.35,0,14.78,8.42,14.78,14.65v8.81c0,18.67-31.89,40.7-50.03,42.26ZM537.6,800.1c0,2.59-.52,2.72-1.04,4.93-13.35,0-42.77-29.29-49.9-38.37-8.3-10.37-27.74-44.98-27.74-61.7,11.92,7.91,21.78,37.85,33.7,50.81,7,7.52,13.87,13.61,21.65,20.48,3.63,3.37,23.33,17.37,23.33,19.96v3.89ZM624.97,691.22c-4.41,0-14,9.72-30.46,9.72-28.9,0-92.68-55.61-112.77-71.68-14-11.28-90.34-78.55-93.46-90.21,14.39-3.76,58.98-33.96,58.98-50.03v-2.98c0-39.15-39.27-43.55-39.27-78.42,0-31.37,76.22-19.96,96.18-30.46v-4.93c-28.65-7.65-64.68-23.33-85.68-39.02-12.18-8.94-23.98-17.76-35.39-27.35-9.2-7.78-23.98-22.94-39.01-22.94-6.74,0-12.06,13.61-13.22,21.13-1.56,10.24-.26,22.04-1.81,31.5-3.76,22.04-14.65,27.22-36.03,30.72-18.54,3.24-36.03,8.04-55.48,11.28-17.76,2.98-42.9,14.52-51.46,15.29v1.94c10.63.91,35.13,10.11,38.89,18.02,4.41,8.81,6.61,35.65,6.22,49.77l-2.33,92.16c-.52,33.05,15.17,147.25,36.68,147.25h2.98c22.94,0,62.86-30.2,62.86-53.01v-.91l-9.98-60.66,1.17-.26v-3.89c0-3.63,6.48-6.87,9.72-6.87,14.39,0,46.92,46.53,54.96,57.94,9.46,13.09,14.91,16.33,22.04,33.83,4.28,10.24,13.74,27.22,19.44,36.55,19.96,32.66,59.5,118.99,105.9,118.99,22.55,0,46.79-34.74,58.07-49,6.87-8.68,36.16-58.59,36.16-70.77v-4.93c0-3.5-.52-7.78-3.89-7.78ZM377.65,321.03c4.15,2.72,37.2,21.78,37.2,23.72v1.04c0,1.56-.65,2.85-2.07,2.85-5.19,0-34.48-18.92-39.27-22.55-7.65-5.7-25.92-23.85-28.39-33.31,12.96,6.87,20.22,19.96,32.53,28.26ZM286.14,660.76c0,3.63-4.54,11.8-7.78,11.8h-2.07c-19.44,0-31.37-107.45-31.37-137.4,2.33,2.59,10.89,53.79,16.33,65.07,6.87,14,24.89,37.59,24.89,56.64v3.89ZM381.41,485.13c0,19.57-43.81,25.54-65.85,25.54-19.96,0-21-27.09-21.52-46.14-.26-10.63-1.94-22.29-2.85-31.63-.65-7-5.44-26.31.91-26.31h.91c19.05,0,88.4,49.51,88.4,70.64v7.91ZM384.4,521.42c8.81-7.78,18.67-14.39,22.29-27.87,2.2-8.43,3.24-37.85,12.05-37.85h.91c6.35,0,14.78,8.42,14.78,14.65v8.81c0,18.67-31.89,40.7-50.03,42.26ZM537.6,800.1c0,2.59-.52,2.72-1.04,4.93-13.35,0-42.77-29.29-49.9-38.37-8.3-10.37-27.74-44.98-27.74-61.7,11.92,7.91,21.78,37.85,33.7,50.81,7,7.52,13.87,13.61,21.65,20.48,3.63,3.37,23.33,17.37,23.33,19.96v3.89ZM639.36,638.85c-9.98,1.94-27.74,14-33.05,14h-6.87c-16.85,0-68.05-30.59-81.92-38.76-20.09-11.92-54.18-36.29-66.36-54.44,29.16-43.55,39.27-35.65,39.27-109.92,16.98-3.89,53.01-50.42,53.01-71.68v-7.78c0-15.04-34.35-24.89-46.53-31.11-19.18-9.72-32.4-16.33-49.9-27.61-15.94-10.24-31.37-20.35-46.02-31.63-12.31-9.46-28.26-29.42-49-29.42h-11.8c-31.37,0-67.92,46.27-82.96,66.36-10.11,13.48-24.63,26.96-41.87,32.66-13.35,4.41-42.13,16.85-57.81,16.85h-7.91c-8.81,0-24.37-18.15-27.09-25.92-4.54-13.48-3.76-32.02-22.04-32.02h-.91c-9.98,0-14.78,10.11-14.78,20.61,0,16.46,35.39,24.63,35.39,53.01v6.87c0,9.98-13.61,27.48-22.55,27.48h-2.98c-15.04,0-15.94-27.48-29.42-27.48h-6.87c-3.63,0-6.87,6.48-6.87,9.72,0,20.48,30.46,23.85,30.46,40.31v8.81l-2.98,23.59v8.81c0,10.89,26.83,15.42,30.85,22.04,3.63,5.83,1.56,42.26,1.56,52.5,0,39.66,3.76,66.75,5.83,101.1,1.68,25.15,12.18,66.36,19.31,87.75,7.39,22.17,16.07,63.51,44.59,62.61l36.29-1.17c.65,1.3,2.98,5.19,2.98,6.87,0,7.13-4.02,14.52-4.02,23.59v7.78c0,7.39,7.39,14.78,15.81,14.78,6.22,0,14.65-7.13,14.65-13.74v-1.94c0-17.89-6.87-26.18-6.87-39.27,0-25.67,35.52-39.92,52.11-51.07,6.61,4.54,29.94,45.63,37.98,56.25,14.26,18.92,25.4,36.03,40.83,54.31,16.59,19.7,29.68,29.55,50.16,45.11,19.96,14.91,36.94,24.24,36.94,58.33v4.8c0,14.39-5.96,26.57-5.96,38.37v16.59c0,9.2,9.72,17.76,19.7,17.76,15.68,0,15.81-19.05,13.87-32.66-2.07-15.29-8.94-22.94-8.94-40.96v-4.93c0-17.24,5.06-30.2,14.39-38.5,3.5-3.11,31.89-17.5,36.68-17.5h8.81c16.59,0,1.81,44.2,20.61,44.2h1.04c5.31,0,9.72-4.54,9.72-9.85v-2.85c0-7-10.76-15.55-10.76-29.42v-9.85c0-24.63,15.55-45.63,27.74-58.72,13.22-14.13,27.35-32.53,39.15-48.09,22.42-29.81,40.18-81.79,40.18-133.64v-2.98c0-17.11-9.59-21.91-24.89-18.92ZM660.22,666.59c0,23.59-8.3,65.2-15.68,81.53-11.93,26.57-20.48,39.14-36.94,61.05-13.22,17.63-32.92,34.74-43.29,53.92-4.54,8.17-10.76,26.18-10.11,39.02.26,6.22,1.3,16.59,3.11,21.52,2.59,7.13,6.74,7.52,6.74,17.76v1.04c0,2.59-.52,2.72-1.04,4.93l-.39,1.04-10.37-5.05c0-21.13-.78-50.03-20.61-50.03h-4.93c-11.28,0-34.35,16.2-39.92,22.81-9.72,11.54-14,29.29-14,49.9v2.85c0,10.76,1.69,20.48,4.54,28.9.52,1.81,6.22,26.83,6.22,27.09,0,2.59-4.93,10.76-9.85,10.76h-3.89c-8.3,0-11.79-10.63-11.79-19.57v-4.02c0-15.42,7.91-26.57,7.91-46.01v-33.44c0-22.94-26.31-35-40.57-45.88-16.33-12.18-32.92-25.15-45.63-40.7-14-16.98-23.85-31.37-35-51.46-5.19-9.33-23.46-53.27-33.05-53.27-10.24,0-36.68,18.41-45.24,23.46-12.18,7.26-29.42,21.26-29.42,40.31,0,9.98,5.96,18.28,5.96,31.37v1.94c0,3.37-3.11,11.8-6.87,11.8h-1.94c-4.41,0-8.81-10.5-8.81-15.68v-1.04c0-9.2,4.8-14.65,4.8-21.52v-2.98c0-5.57-1.56-7-1.94-11.8-3.37-.78-3.24-1.94-6.87-1.94l-5.96-.39-17.63,2.33c-19.05,2.72-31.37-20.09-34.35-35.26-3.5-17.24-9.33-38.63-13.74-56-9.46-37.46-16.98-75.83-15.68-121.58.65-21,1.56-49.64,1.04-68.83-.91-29.29-18.67-23.98-36.94-32.79-15.29-7.52-4.67-42-13.22-56.38-7-11.92-7.78-9.72-18.79-16.59-1.69-.91-8.81-6.74-9.72-7.91-2.85-3.37-1.81-10.89,2.98-10.89h2.98c16.46,0,13.61,31.37,32.4,31.37h5.83c14,0,27.61-18.54,27.61-32.4v-10.76c0-8.94-8.3-26.96-12.18-32.92-5.06-7.78-20.22-14.78-20.22-25.92v-3.89c0-3.37,3.63-4.8,5.83-5.96,19.96,10.5,11.67,17.63,20.35,35.65,5.31,11.02,16.85,23.2,32.66,23.2h1.04c19.57,0,42.9-11.15,58.07-16.46,23.33-8.43,30.33-13.22,44.72-30.85,16.2-19.7,51.59-67.4,83.73-67.4h10.76c15.68,0,36.29,20.74,46.92,28.65,14.78,11.02,28.78,21.91,44.85,31.76,17.11,10.37,31.63,17.37,50.03,26.57,12.83,6.48,44.85,14.91,44.85,31.76,0,32.28-52.88,53.27-57.55,78.81-5.31,28.78,3.63,30.85-12.05,55.87-7.13,11.41-28.65,25.66-28.65,39.92,0,19.18,52.24,56.77,67.14,65.46,17.89,10.5,65.59,43.55,89.96,43.55h9.85c6.22,0,28.52-15.68,39.27-15.68,6.61,0,12.7,15.42,12.7,23.46v1.94ZM624.97,691.22c-4.41,0-14,9.72-30.46,9.72-28.9,0-92.68-55.61-112.77-71.68-14-11.28-90.34-78.55-93.46-90.21,14.39-3.76,58.98-33.96,58.98-50.03v-2.98c0-39.15-39.27-43.55-39.27-78.42,0-31.37,76.22-19.96,96.18-30.46v-4.93c-28.65-7.65-64.68-23.33-85.68-39.02-12.18-8.94-23.98-17.76-35.39-27.35-9.2-7.78-23.98-22.94-39.01-22.94-6.74,0-12.06,13.61-13.22,21.13-1.56,10.24-.26,22.04-1.81,31.5-3.76,22.04-14.65,27.22-36.03,30.72-18.54,3.24-36.03,8.04-55.48,11.28-17.76,2.98-42.9,14.52-51.46,15.29v1.94c10.63.91,35.13,10.11,38.89,18.02,4.41,8.81,6.61,35.65,6.22,49.77l-2.33,92.16c-.52,33.05,15.17,147.25,36.68,147.25h2.98c22.94,0,62.86-30.2,62.86-53.01v-.91l-9.98-60.66,1.17-.26v-3.89c0-3.63,6.48-6.87,9.72-6.87,14.39,0,46.92,46.53,54.96,57.94,9.46,13.09,14.91,16.33,22.04,33.83,4.28,10.24,13.74,27.22,19.44,36.55,19.96,32.66,59.5,118.99,105.9,118.99,22.55,0,46.79-34.74,58.07-49,6.87-8.68,36.16-58.59,36.16-70.77v-4.93c0-3.5-.52-7.78-3.89-7.78ZM377.65,321.03c4.15,2.72,37.2,21.78,37.2,23.72v1.04c0,1.56-.65,2.85-2.07,2.85-5.19,0-34.48-18.92-39.27-22.55-7.65-5.7-25.92-23.85-28.39-33.31,12.96,6.87,20.22,19.96,32.53,28.26ZM286.14,660.76c0,3.63-4.54,11.8-7.78,11.8h-2.07c-19.44,0-31.37-107.45-31.37-137.4,2.33,2.59,10.89,53.79,16.33,65.07,6.87,14,24.89,37.59,24.89,56.64v3.89ZM381.41,485.13c0,19.57-43.81,25.54-65.85,25.54-19.96,0-21-27.09-21.52-46.14-.26-10.63-1.94-22.29-2.85-31.63-.65-7-5.44-26.31.91-26.31h.91c19.05,0,88.4,49.51,88.4,70.64v7.91ZM384.4,521.42c8.81-7.78,18.67-14.39,22.29-27.87,2.2-8.43,3.24-37.85,12.05-37.85h.91c6.35,0,14.78,8.42,14.78,14.65v8.81c0,18.67-31.89,40.7-50.03,42.26ZM537.6,800.1c0,2.59-.52,2.72-1.04,4.93-13.35,0-42.77-29.29-49.9-38.37-8.3-10.37-27.74-44.98-27.74-61.7,11.92,7.91,21.78,37.85,33.7,50.81,7,7.52,13.87,13.61,21.65,20.48,3.63,3.37,23.33,17.37,23.33,19.96v3.89ZM624.97,691.22c-4.41,0-14,9.72-30.46,9.72-28.9,0-92.68-55.61-112.77-71.68-14-11.28-90.34-78.55-93.46-90.21,14.39-3.76,58.98-33.96,58.98-50.03v-2.98c0-39.15-39.27-43.55-39.27-78.42,0-31.37,76.22-19.96,96.18-30.46v-4.93c-28.65-7.65-64.68-23.33-85.68-39.02-12.18-8.94-23.98-17.76-35.39-27.35-9.2-7.78-23.98-22.94-39.01-22.94-6.74,0-12.06,13.61-13.22,21.13-1.56,10.24-.26,22.04-1.81,31.5-3.76,22.04-14.65,27.22-36.03,30.72-18.54,3.24-36.03,8.04-55.48,11.28-17.76,2.98-42.9,14.52-51.46,15.29v1.94c10.63.91,35.13,10.11,38.89,18.02,4.41,8.81,6.61,35.65,6.22,49.77l-2.33,92.16c-.52,33.05,15.17,147.25,36.68,147.25h2.98c22.94,0,62.86-30.2,62.86-53.01v-.91l-9.98-60.66,1.17-.26v-3.89c0-3.63,6.48-6.87,9.72-6.87,14.39,0,46.92,46.53,54.96,57.94,9.46,13.09,14.91,16.33,22.04,33.83,4.28,10.24,13.74,27.22,19.44,36.55,19.96,32.66,59.5,118.99,105.9,118.99,22.55,0,46.79-34.74,58.07-49,6.87-8.68,36.16-58.59,36.16-70.77v-4.93c0-3.5-.52-7.78-3.89-7.78ZM377.65,321.03c4.15,2.72,37.2,21.78,37.2,23.72v1.04c0,1.56-.65,2.85-2.07,2.85-5.19,0-34.48-18.92-39.27-22.55-7.65-5.7-25.92-23.85-28.39-33.31,12.96,6.87,20.22,19.96,32.53,28.26ZM286.14,660.76c0,3.63-4.54,11.8-7.78,11.8h-2.07c-19.44,0-31.37-107.45-31.37-137.4,2.33,2.59,10.89,53.79,16.33,65.07,6.87,14,24.89,37.59,24.89,56.64v3.89ZM381.41,485.13c0,19.57-43.81,25.54-65.85,25.54-19.96,0-21-27.09-21.52-46.14-.26-10.63-1.94-22.29-2.85-31.63-.65-7-5.44-26.31.91-26.31h.91c19.05,0,88.4,49.51,88.4,70.64v7.91ZM384.4,521.42c8.81-7.78,18.67-14.39,22.29-27.87,2.2-8.43,3.24-37.85,12.05-37.85h.91c6.35,0,14.78,8.42,14.78,14.65v8.81c0,18.67-31.89,40.7-50.03,42.26ZM537.6,800.1c0,2.59-.52,2.72-1.04,4.93-13.35,0-42.77-29.29-49.9-38.37-8.3-10.37-27.74-44.98-27.74-61.7,11.92,7.91,21.78,37.85,33.7,50.81,7,7.52,13.87,13.61,21.65,20.48,3.63,3.37,23.33,17.37,23.33,19.96v3.89ZM624.97,691.22c-4.41,0-14,9.72-30.46,9.72-28.9,0-92.68-55.61-112.77-71.68-14-11.28-90.34-78.55-93.46-90.21,14.39-3.76,58.98-33.96,58.98-50.03v-2.98c0-39.15-39.27-43.55-39.27-78.42,0-31.37,76.22-19.96,96.18-30.46v-4.93c-28.65-7.65-64.68-23.33-85.68-39.02-12.18-8.94-23.98-17.76-35.39-27.35-9.2-7.78-23.98-22.94-39.01-22.94-6.74,0-12.06,13.61-13.22,21.13-1.56,10.24-.26,22.04-1.81,31.5-3.76,22.04-14.65,27.22-36.03,30.72-18.54,3.24-36.03,8.04-55.48,11.28-17.76,2.98-42.9,14.52-51.46,15.29v1.94c10.63.91,35.13,10.11,38.89,18.02,4.41,8.81,6.61,35.65,6.22,49.77l-2.33,92.16c-.52,33.05,15.17,147.25,36.68,147.25h2.98c22.94,0,62.86-30.2,62.86-53.01v-.91l-9.98-60.66,1.17-.26v-3.89c0-3.63,6.48-6.87,9.72-6.87,14.39,0,46.92,46.53,54.96,57.94,9.46,13.09,14.91,16.33,22.04,33.83,4.28,10.24,13.74,27.22,19.44,36.55,19.96,32.66,59.5,118.99,105.9,118.99,22.55,0,46.79-34.74,58.07-49,6.87-8.68,36.16-58.59,36.16-70.77v-4.93c0-3.5-.52-7.78-3.89-7.78ZM377.65,321.03c4.15,2.72,37.2,21.78,37.2,23.72v1.04c0,1.56-.65,2.85-2.07,2.85-5.19,0-34.48-18.92-39.27-22.55-7.65-5.7-25.92-23.85-28.39-33.31,12.96,6.87,20.22,19.96,32.53,28.26ZM286.14,660.76c0,3.63-4.54,11.8-7.78,11.8h-2.07c-19.44,0-31.37-107.45-31.37-137.4,2.33,2.59,10.89,53.79,16.33,65.07,6.87,14,24.89,37.59,24.89,56.64v3.89ZM381.41,485.13c0,19.57-43.81,25.54-65.85,25.54-19.96,0-21-27.09-21.52-46.14-.26-10.63-1.94-22.29-2.85-31.63-.65-7-5.44-26.31.91-26.31h.91c19.05,0,88.4,49.51,88.4,70.64v7.91ZM384.4,521.42c8.81-7.78,18.67-14.39,22.29-27.87,2.2-8.43,3.24-37.85,12.05-37.85h.91c6.35,0,14.78,8.42,14.78,14.65v8.81c0,18.67-31.89,40.7-50.03,42.26ZM537.6,800.1c0,2.59-.52,2.72-1.04,4.93-13.35,0-42.77-29.29-49.9-38.37-8.3-10.37-27.74-44.98-27.74-61.7,11.92,7.91,21.78,37.85,33.7,50.81,7,7.52,13.87,13.61,21.65,20.48,3.63,3.37,23.33,17.37,23.33,19.96v3.89ZM624.97,691.22c-4.41,0-14,9.72-30.46,9.72-28.9,0-92.68-55.61-112.77-71.68-14-11.28-90.34-78.55-93.46-90.21,14.39-3.76,58.98-33.96,58.98-50.03v-2.98c0-39.15-39.27-43.55-39.27-78.42,0-31.37,76.22-19.96,96.18-30.46v-4.93c-28.65-7.65-64.68-23.33-85.68-39.02-12.18-8.94-23.98-17.76-35.39-27.35-9.2-7.78-23.98-22.94-39.01-22.94-6.74,0-12.06,13.61-13.22,21.13-1.56,10.24-.26,22.04-1.81,31.5-3.76,22.04-14.65,27.22-36.03,30.72-18.54,3.24-36.03,8.04-55.48,11.28-17.76,2.98-42.9,14.52-51.46,15.29v1.94c10.63.91,35.13,10.11,38.89,18.02,4.41,8.81,6.61,35.65,6.22,49.77l-2.33,92.16c-.52,33.05,15.17,147.25,36.68,147.25h2.98c22.94,0,62.86-30.2,62.86-53.01v-.91l-9.98-60.66,1.17-.26v-3.89c0-3.63,6.48-6.87,9.72-6.87,14.39,0,46.92,46.53,54.96,57.94,9.46,13.09,14.91,16.33,22.04,33.83,4.28,10.24,13.74,27.22,19.44,36.55,19.96,32.66,59.5,118.99,105.9,118.99,22.55,0,46.79-34.74,58.07-49,6.87-8.68,36.16-58.59,36.16-70.77v-4.93c0-3.5-.52-7.78-3.89-7.78ZM377.65,321.03c4.15,2.72,37.2,21.78,37.2,23.72v1.04c0,1.56-.65,2.85-2.07,2.85-5.19,0-34.48-18.92-39.27-22.55-7.65-5.7-25.92-23.85-28.39-33.31,12.96,6.87,20.22,19.96,32.53,28.26ZM286.14,660.76c0,3.63-4.54,11.8-7.78,11.8h-2.07c-19.44,0-31.37-107.45-31.37-137.4,2.33,2.59,10.89,53.79,16.33,65.07,6.87,14,24.89,37.59,24.89,56.64v3.89ZM381.41,485.13c0,19.57-43.81,25.54-65.85,25.54-19.96,0-21-27.09-21.52-46.14-.26-10.63-1.94-22.29-2.85-31.63-.65-7-5.44-26.31.91-26.31h.91c19.05,0,88.4,49.51,88.4,70.64v7.91ZM384.4,521.42c8.81-7.78,18.67-14.39,22.29-27.87,2.2-8.43,3.24-37.85,12.05-37.85h.91c6.35,0,14.78,8.42,14.78,14.65v8.81c0,18.67-31.89,40.7-50.03,42.26ZM537.6,800.1c0,2.59-.52,2.72-1.04,4.93-13.35,0-42.77-29.29-49.9-38.37-8.3-10.37-27.74-44.98-27.74-61.7,11.92,7.91,21.78,37.85,33.7,50.81,7,7.52,13.87,13.61,21.65,20.48,3.63,3.37,23.33,17.37,23.33,19.96v3.89ZM624.97,691.22c-4.41,0-14,9.72-30.46,9.72-28.9,0-92.68-55.61-112.77-71.68-14-11.28-90.34-78.55-93.46-90.21,14.39-3.76,58.98-33.96,58.98-50.03v-2.98c0-39.15-39.27-43.55-39.27-78.42,0-31.37,76.22-19.96,96.18-30.46v-4.93c-28.65-7.65-64.68-23.33-85.68-39.02-12.18-8.94-23.98-17.76-35.39-27.35-9.2-7.78-23.98-22.94-39.01-22.94-6.74,0-12.06,13.61-13.22,21.13-1.56,10.24-.26,22.04-1.81,31.5-3.76,22.04-14.65,27.22-36.03,30.72-18.54,3.24-36.03,8.04-55.48,11.28-17.76,2.98-42.9,14.52-51.46,15.29v1.94c10.63.91,35.13,10.11,38.89,18.02,4.41,8.81,6.61,35.65,6.22,49.77l-2.33,92.16c-.52,33.05,15.17,147.25,36.68,147.25h2.98c22.94,0,62.86-30.2,62.86-53.01v-.91l-9.98-60.66,1.17-.26v-3.89c0-3.63,6.48-6.87,9.72-6.87,14.39,0,46.92,46.53,54.96,57.94,9.46,13.09,14.91,16.33,22.04,33.83,4.28,10.24,13.74,27.22,19.44,36.55,19.96,32.66,59.5,118.99,105.9,118.99,22.55,0,46.79-34.74,58.07-49,6.87-8.68,36.16-58.59,36.16-70.77v-4.93c0-3.5-.52-7.78-3.89-7.78ZM377.65,321.03c4.15,2.72,37.2,21.78,37.2,23.72v1.04c0,1.56-.65,2.85-2.07,2.85-5.19,0-34.48-18.92-39.27-22.55-7.65-5.7-25.92-23.85-28.39-33.31,12.96,6.87,20.22,19.96,32.53,28.26ZM286.14,660.76c0,3.63-4.54,11.8-7.78,11.8h-2.07c-19.44,0-31.37-107.45-31.37-137.4,2.33,2.59,10.89,53.79,16.33,65.07,6.87,14,24.89,37.59,24.89,56.64v3.89ZM381.41,485.13c0,19.57-43.81,25.54-65.85,25.54-19.96,0-21-27.09-21.52-46.14-.26-10.63-1.94-22.29-2.85-31.63-.65-7-5.44-26.31.91-26.31h.91c19.05,0,88.4,49.51,88.4,70.64v7.91ZM384.4,521.42c8.81-7.78,18.67-14.39,22.29-27.87,2.2-8.43,3.24-37.85,12.05-37.85h.91c6.35,0,14.78,8.42,14.78,14.65v8.81c0,18.67-31.89,40.7-50.03,42.26ZM537.6,800.1c0,2.59-.52,2.72-1.04,4.93-13.35,0-42.77-29.29-49.9-38.37-8.3-10.37-27.74-44.98-27.74-61.7,11.92,7.91,21.78,37.85,33.7,50.81,7,7.52,13.87,13.61,21.65,20.48,3.63,3.37,23.33,17.37,23.33,19.96v3.89ZM624.97,691.22c-4.41,0-14,9.72-30.46,9.72-28.9,0-92.68-55.61-112.77-71.68-14-11.28-90.34-78.55-93.46-90.21,14.39-3.76,58.98-33.96,58.98-50.03v-2.98c0-39.15-39.27-43.55-39.27-78.42,0-31.37,76.22-19.96,96.18-30.46v-4.93c-28.65-7.65-64.68-23.33-85.68-39.02-12.18-8.94-23.98-17.76-35.39-27.35-9.2-7.78-23.98-22.94-39.01-22.94-6.74,0-12.06,13.61-13.22,21.13-1.56,10.24-.26,22.04-1.81,31.5-3.76,22.04-14.65,27.22-36.03,30.72-18.54,3.24-36.03,8.04-55.48,11.28-17.76,2.98-42.9,14.52-51.46,15.29v1.94c10.63.91,35.13,10.11,38.89,18.02,4.41,8.81,6.61,35.65,6.22,49.77l-2.33,92.16c-.52,33.05,15.17,147.25,36.68,147.25h2.98c22.94,0,62.86-30.2,62.86-53.01v-.91l-9.98-60.66,1.17-.26v-3.89c0-3.63,6.48-6.87,9.72-6.87,14.39,0,46.92,46.53,54.96,57.94,9.46,13.09,14.91,16.33,22.04,33.83,4.28,10.24,13.74,27.22,19.44,36.55,19.96,32.66,59.5,118.99,105.9,118.99,22.55,0,46.79-34.74,58.07-49,6.87-8.68,36.16-58.59,36.16-70.77v-4.93c0-3.5-.52-7.78-3.89-7.78ZM377.65,321.03c4.15,2.72,37.2,21.78,37.2,23.72v1.04c0,1.56-.65,2.85-2.07,2.85-5.19,0-34.48-18.92-39.27-22.55-7.65-5.7-25.92-23.85-28.39-33.31,12.96,6.87,20.22,19.96,32.53,28.26ZM286.14,660.76c0,3.63-4.54,11.8-7.78,11.8h-2.07c-19.44,0-31.37-107.45-31.37-137.4,2.33,2.59,10.89,53.79,16.33,65.07,6.87,14,24.89,37.59,24.89,56.64v3.89ZM381.41,485.13c0,19.57-43.81,25.54-65.85,25.54-19.96,0-21-27.09-21.52-46.14-.26-10.63-1.94-22.29-2.85-31.63-.65-7-5.44-26.31.91-26.31h.91c19.05,0,88.4,49.51,88.4,70.64v7.91ZM384.4,521.42c8.81-7.78,18.67-14.39,22.29-27.87,2.2-8.43,3.24-37.85,12.05-37.85h.91c6.35,0,14.78,8.42,14.78,14.65v8.81c0,18.67-31.89,40.7-50.03,42.26ZM537.6,800.1c0,2.59-.52,2.72-1.04,4.93-13.35,0-42.77-29.29-49.9-38.37-8.3-10.37-27.74-44.98-27.74-61.7,11.92,7.91,21.78,37.85,33.7,50.81,7,7.52,13.87,13.61,21.65,20.48,3.63,3.37,23.33,17.37,23.33,19.96v3.89ZM34.16,304.44c-4.28-6.09-8.04-9.72-15.55-8.94-6.48.52-14.26,4.41-14.26,14.91,0,12.7,14.13,21.52,22.94,26.18,4.54,2.46,30.46,16.59,32.02,16.98-3.89-7.52-15.17-34.87-25.15-49.13ZM12.78,315.97c-5.44-5.44-4.15-18.28,5.31-18.28,8.81,0,11.28,5.31,13.87,12.18l7.65,21.13c-4.93-2.46-20.61-8.94-26.83-15.04ZM275.77,914.94h-1.94c-.26,9.85-10.89,32.79-10.89,41.22v4.93c0,3.63,3.37,9.72,6.87,9.72h5.96c5.44,0,11.79-7.13,11.79-12.7v-1.94c0-14.78-11.54-29.42-11.79-41.22ZM279.66,960.05c0,4.93-4.02,8.81-8.81,8.81-3.37,0-5.96-5.44-5.96-8.81v-2.98c0-4.54,6.35-13.35,6.87-20.61,1.81,2.07,7.91,16.46,7.91,19.7v3.89ZM1017.71,397.76c-14.78-19.18-38.63-27.48-72.72-27.48h-1.94l-113.68,15.04-.26-1.3h-12.7c-19.31,0-36.29-4.02-36.29-23.59v-9.85c0-11.67,35.13-76.99,41.22-77.51,0,14.52,6.48,45.88,8.94,60.79,2.98,18.02,11.93,36.42,32.28,36.42h15.68c28.78,0,70.77-15.04,70.77-42.26v-15.68l-6.35-79.46.39-48.09c0-12.18,8.17-39.66,10.76-54.05,2.72-15.68,7.91-39.66,7.91-55.87v-13.74c0-20.48-19.18-19.57-40.31-19.57-19.96,0-38.5-8.94-50.94-8.94h-4.93c-24.11,0-29.16,28.78-34.09,47.44-4.67,17.11-12.05,49-12.05,68.44-14.39,7.52-41.74,6.48-56.25,17.37-15.29,11.41-23.98,23.07-31.76,41.87-7.65,18.28-14.26,33.31-17.63,56-2.46,16.07-8.3,51.85-8.3,65.33,0,26.7,5.44,40.18,17.5,55.09,7.26,9.07,32.53,23.46,48.22,23.46h26.57l43.16-3.63,24.63.65.13-1.04,33.31,5.44c2.46,11.67,5.83,14.78,5.83,30.85v2.98c0,13.61-3.63,16.07-5.96,24.5-20.87,0-131.82-49.64-152.17-59.75-17.24-8.68-54.05-31.5-72.59-33.44-35.13-3.76-50.16,19.05-50.16,54.05v12.7c0,36.29,12.96,72.85,25.92,96.83,9.72,18.28,20.35,14.78,40.31,21.39,8.56,2.85,40.44,19.18,41.74,19.18,9.85,0,18.28-29.42,32.4-29.42,2.59,0,62.99,53.92,113.93,53.92h23.59c28,0,74.4-22.29,90.47-35.13,18.54-14.91,42.13-50.94,42.13-83.6v-2.98c0-35.13-1.17-63.12-16.72-83.34ZM914.41,316.1c15.94-19.05,9.72-38.63,16.85-49.9l2.33,14.78-.39,11.8c0,22.04-8.81,63.77-27.48,63.77h-1.94c-19.31,0,6.87-36.03,10.63-40.44ZM844.67,64.77c1.94-8.68,10.89-29.16,18.92-29.16h5.83c2.33,0,4.93,2.59,4.93,4.93,0,7.52-15.94,25.15-20.22,30.85-6.87,9.07-12.05,35.26-14.13,36.81,0-21.13.78-27.22,4.67-43.42ZM739.42,250.13c-3.76,21-9.46,59.37-9.46,81.92,0,11.54,4.54,24.76-6.87,27.48-10.24-5.44-.52-89.05,2.85-101.23,4.67-16.72,5.83-29.03,13.22-43.68,4.54-9.07,13.87-31.89,20.35-36.68,0,23.33-16.07,49.39-20.09,72.2ZM667.61,435.61c-2.07,6.48-11.28,32.28-11.28,37.72v15.68l5.96,45.11c-12.7-14.39-25.54-69.09-25.54-98.12v-9.85c0-17.63,10.11-41.22,28.39-41.22,4.41,0,8.81,4.02,8.81,7.91,0,15.81-2.2,30.33-6.35,42.77ZM998.4,528.55c-3.63,7.39-5.57,10.76-14.39,13.09-7.78,2.07-15.42.52-15.42-8.43,0-36.03,21.65-60.27,21.65-88.4l.39-3.89-3.89-45.11c4.54,4.54,13.48,31.5,15.42,39.92,3.63,15.29,2.72,32.02,5.31,48.74,2.46,15.94-4.15,34.22-9.07,44.07ZM1017.71,397.76c-14.78-19.18-38.63-27.48-72.72-27.48h-1.94l-113.68,15.04-.26-1.3h-12.7c-19.31,0-36.29-4.02-36.29-23.59v-9.85c0-11.67,35.13-76.99,41.22-77.51,0,14.52,6.48,45.88,8.94,60.79,2.98,18.02,11.93,36.42,32.28,36.42h15.68c28.78,0,70.77-15.04,70.77-42.26v-15.68l-6.35-79.46.39-48.09c0-12.18,8.17-39.66,10.76-54.05,2.72-15.68,7.91-39.66,7.91-55.87v-13.74c0-20.48-19.18-19.57-40.31-19.57-19.96,0-38.5-8.94-50.94-8.94h-4.93c-24.11,0-29.16,28.78-34.09,47.44-4.67,17.11-12.05,49-12.05,68.44-14.39,7.52-41.74,6.48-56.25,17.37-15.29,11.41-23.98,23.07-31.76,41.87-7.65,18.28-14.26,33.31-17.63,56-2.46,16.07-8.3,51.85-8.3,65.33,0,26.7,5.44,40.18,17.5,55.09,7.26,9.07,32.53,23.46,48.22,23.46h26.57l43.16-3.63,24.63.65.13-1.04,33.31,5.44c2.46,11.67,5.83,14.78,5.83,30.85v2.98c0,13.61-3.63,16.07-5.96,24.5-20.87,0-131.82-49.64-152.17-59.75-17.24-8.68-54.05-31.5-72.59-33.44-35.13-3.76-50.16,19.05-50.16,54.05v12.7c0,36.29,12.96,72.85,25.92,96.83,9.72,18.28,20.35,14.78,40.31,21.39,8.56,2.85,40.44,19.18,41.74,19.18,9.85,0,18.28-29.42,32.4-29.42,2.59,0,62.99,53.92,113.93,53.92h23.59c28,0,74.4-22.29,90.47-35.13,18.54-14.91,42.13-50.94,42.13-83.6v-2.98c0-35.13-1.17-63.12-16.72-83.34ZM914.41,316.1c15.94-19.05,9.72-38.63,16.85-49.9l2.33,14.78-.39,11.8c0,22.04-8.81,63.77-27.48,63.77h-1.94c-19.31,0,6.87-36.03,10.63-40.44ZM844.67,64.77c1.94-8.68,10.89-29.16,18.92-29.16h5.83c2.33,0,4.93,2.59,4.93,4.93,0,7.52-15.94,25.15-20.22,30.85-6.87,9.07-12.05,35.26-14.13,36.81,0-21.13.78-27.22,4.67-43.42ZM739.42,250.13c-3.76,21-9.46,59.37-9.46,81.92,0,11.54,4.54,24.76-6.87,27.48-10.24-5.44-.52-89.05,2.85-101.23,4.67-16.72,5.83-29.03,13.22-43.68,4.54-9.07,13.87-31.89,20.35-36.68,0,23.33-16.07,49.39-20.09,72.2ZM667.61,435.61c-2.07,6.48-11.28,32.28-11.28,37.72v15.68l5.96,45.11c-12.7-14.39-25.54-69.09-25.54-98.12v-9.85c0-17.63,10.11-41.22,28.39-41.22,4.41,0,8.81,4.02,8.81,7.91,0,15.81-2.2,30.33-6.35,42.77ZM998.4,528.55c-3.63,7.39-5.57,10.76-14.39,13.09-7.78,2.07-15.42.52-15.42-8.43,0-36.03,21.65-60.27,21.65-88.4l.39-3.89-3.89-45.11c4.54,4.54,13.48,31.5,15.42,39.92,3.63,15.29,2.72,32.02,5.31,48.74,2.46,15.94-4.15,34.22-9.07,44.07ZM1017.71,397.76c-14.78-19.18-38.63-27.48-72.72-27.48h-1.94l-113.68,15.04-.26-1.3h-12.7c-19.31,0-36.29-4.02-36.29-23.59v-9.85c0-11.67,35.13-76.99,41.22-77.51,0,14.52,6.48,45.88,8.94,60.79,2.98,18.02,11.93,36.42,32.28,36.42h15.68c28.78,0,70.77-15.04,70.77-42.26v-15.68l-6.35-79.46.39-48.09c0-12.18,8.17-39.66,10.76-54.05,2.72-15.68,7.91-39.66,7.91-55.87v-13.74c0-20.48-19.18-19.57-40.31-19.57-19.96,0-38.5-8.94-50.94-8.94h-4.93c-24.11,0-29.16,28.78-34.09,47.44-4.67,17.11-12.05,49-12.05,68.44-14.39,7.52-41.74,6.48-56.25,17.37-15.29,11.41-23.98,23.07-31.76,41.87-7.65,18.28-14.26,33.31-17.63,56-2.46,16.07-8.3,51.85-8.3,65.33,0,26.7,5.44,40.18,17.5,55.09,7.26,9.07,32.53,23.46,48.22,23.46h26.57l43.16-3.63,24.63.65.13-1.04,33.31,5.44c2.46,11.67,5.83,14.78,5.83,30.85v2.98c0,13.61-3.63,16.07-5.96,24.5-20.87,0-131.82-49.64-152.17-59.75-17.24-8.68-54.05-31.5-72.59-33.44-35.13-3.76-50.16,19.05-50.16,54.05v12.7c0,36.29,12.96,72.85,25.92,96.83,9.72,18.28,20.35,14.78,40.31,21.39,8.56,2.85,40.44,19.18,41.74,19.18,9.85,0,18.28-29.42,32.4-29.42,2.59,0,62.99,53.92,113.93,53.92h23.59c28,0,74.4-22.29,90.47-35.13,18.54-14.91,42.13-50.94,42.13-83.6v-2.98c0-35.13-1.17-63.12-16.72-83.34ZM914.41,316.1c15.94-19.05,9.72-38.63,16.85-49.9l2.33,14.78-.39,11.8c0,22.04-8.81,63.77-27.48,63.77h-1.94c-19.31,0,6.87-36.03,10.63-40.44ZM844.67,64.77c1.94-8.68,10.89-29.16,18.92-29.16h5.83c2.33,0,4.93,2.59,4.93,4.93,0,7.52-15.94,25.15-20.22,30.85-6.87,9.07-12.05,35.26-14.13,36.81,0-21.13.78-27.22,4.67-43.42ZM739.42,250.13c-3.76,21-9.46,59.37-9.46,81.92,0,11.54,4.54,24.76-6.87,27.48-10.24-5.44-.52-89.05,2.85-101.23,4.67-16.72,5.83-29.03,13.22-43.68,4.54-9.07,13.87-31.89,20.35-36.68,0,23.33-16.07,49.39-20.09,72.2ZM667.61,435.61c-2.07,6.48-11.28,32.28-11.28,37.72v15.68l5.96,45.11c-12.7-14.39-25.54-69.09-25.54-98.12v-9.85c0-17.63,10.11-41.22,28.39-41.22,4.41,0,8.81,4.02,8.81,7.91,0,15.81-2.2,30.33-6.35,42.77ZM998.4,528.55c-3.63,7.39-5.57,10.76-14.39,13.09-7.78,2.07-15.42.52-15.42-8.43,0-36.03,21.65-60.27,21.65-88.4l.39-3.89-3.89-45.11c4.54,4.54,13.48,31.5,15.42,39.92,3.63,15.29,2.72,32.02,5.31,48.74,2.46,15.94-4.15,34.22-9.07,44.07ZM1017.71,397.76c-14.78-19.18-38.63-27.48-72.72-27.48h-1.94l-113.68,15.04-.26-1.3h-12.7c-19.31,0-36.29-4.02-36.29-23.59v-9.85c0-11.67,35.13-76.99,41.22-77.51,0,14.52,6.48,45.88,8.94,60.79,2.98,18.02,11.93,36.42,32.28,36.42h15.68c28.78,0,70.77-15.04,70.77-42.26v-15.68l-6.35-79.46.39-48.09c0-12.18,8.17-39.66,10.76-54.05,2.72-15.68,7.91-39.66,7.91-55.87v-13.74c0-20.48-19.18-19.57-40.31-19.57-19.96,0-38.5-8.94-50.94-8.94h-4.93c-24.11,0-29.16,28.78-34.09,47.44-4.67,17.11-12.05,49-12.05,68.44-14.39,7.52-41.74,6.48-56.25,17.37-15.29,11.41-23.98,23.07-31.76,41.87-7.65,18.28-14.26,33.31-17.63,56-2.46,16.07-8.3,51.85-8.3,65.33,0,26.7,5.44,40.18,17.5,55.09,7.26,9.07,32.53,23.46,48.22,23.46h26.57l43.16-3.63,24.63.65.13-1.04,33.31,5.44c2.46,11.67,5.83,14.78,5.83,30.85v2.98c0,13.61-3.63,16.07-5.96,24.5-20.87,0-131.82-49.64-152.17-59.75-17.24-8.68-54.05-31.5-72.59-33.44-35.13-3.76-50.16,19.05-50.16,54.05v12.7c0,36.29,12.96,72.85,25.92,96.83,9.72,18.28,20.35,14.78,40.31,21.39,8.56,2.85,40.44,19.18,41.74,19.18,9.85,0,18.28-29.42,32.4-29.42,2.59,0,62.99,53.92,113.93,53.92h23.59c28,0,74.4-22.29,90.47-35.13,18.54-14.91,42.13-50.94,42.13-83.6v-2.98c0-35.13-1.17-63.12-16.72-83.34ZM914.41,316.1c15.94-19.05,9.72-38.63,16.85-49.9l2.33,14.78-.39,11.8c0,22.04-8.81,63.77-27.48,63.77h-1.94c-19.31,0,6.87-36.03,10.63-40.44ZM844.67,64.77c1.94-8.68,10.89-29.16,18.92-29.16h5.83c2.33,0,4.93,2.59,4.93,4.93,0,7.52-15.94,25.15-20.22,30.85-6.87,9.07-12.05,35.26-14.13,36.81,0-21.13.78-27.22,4.67-43.42ZM739.42,250.13c-3.76,21-9.46,59.37-9.46,81.92,0,11.54,4.54,24.76-6.87,27.48-10.24-5.44-.52-89.05,2.85-101.23,4.67-16.72,5.83-29.03,13.22-43.68,4.54-9.07,13.87-31.89,20.35-36.68,0,23.33-16.07,49.39-20.09,72.2ZM667.61,435.61c-2.07,6.48-11.28,32.28-11.28,37.72v15.68l5.96,45.11c-12.7-14.39-25.54-69.09-25.54-98.12v-9.85c0-17.63,10.11-41.22,28.39-41.22,4.41,0,8.81,4.02,8.81,7.91,0,15.81-2.2,30.33-6.35,42.77ZM998.4,528.55c-3.63,7.39-5.57,10.76-14.39,13.09-7.78,2.07-15.42.52-15.42-8.43,0-36.03,21.65-60.27,21.65-88.4l.39-3.89-3.89-45.11c4.54,4.54,13.48,31.5,15.42,39.92,3.63,15.29,2.72,32.02,5.31,48.74,2.46,15.94-4.15,34.22-9.07,44.07ZM1017.71,397.76c-14.78-19.18-38.63-27.48-72.72-27.48h-1.94l-113.68,15.04-.26-1.3h-12.7c-19.31,0-36.29-4.02-36.29-23.59v-9.85c0-11.67,35.13-76.99,41.22-77.51,0,14.52,6.48,45.88,8.94,60.79,2.98,18.02,11.93,36.42,32.28,36.42h15.68c28.78,0,70.77-15.04,70.77-42.26v-15.68l-6.35-79.46.39-48.09c0-12.18,8.17-39.66,10.76-54.05,2.72-15.68,7.91-39.66,7.91-55.87v-13.74c0-20.48-19.18-19.57-40.31-19.57-19.96,0-38.5-8.94-50.94-8.94h-4.93c-24.11,0-29.16,28.78-34.09,47.44-4.67,17.11-12.05,49-12.05,68.44-14.39,7.52-41.74,6.48-56.25,17.37-15.29,11.41-23.98,23.07-31.76,41.87-7.65,18.28-14.26,33.31-17.63,56-2.46,16.07-8.3,51.85-8.3,65.33,0,26.7,5.44,40.18,17.5,55.09,7.26,9.07,32.53,23.46,48.22,23.46h26.57l43.16-3.63,24.63.65.13-1.04,33.31,5.44c2.46,11.67,5.83,14.78,5.83,30.85v2.98c0,13.61-3.63,16.07-5.96,24.5-20.87,0-131.82-49.64-152.17-59.75-17.24-8.68-54.05-31.5-72.59-33.44-35.13-3.76-50.16,19.05-50.16,54.05v12.7c0,36.29,12.96,72.85,25.92,96.83,9.72,18.28,20.35,14.78,40.31,21.39,8.56,2.85,40.44,19.18,41.74,19.18,9.85,0,18.28-29.42,32.4-29.42,2.59,0,62.99,53.92,113.93,53.92h23.59c28,0,74.4-22.29,90.47-35.13,18.54-14.91,42.13-50.94,42.13-83.6v-2.98c0-35.13-1.17-63.12-16.72-83.34ZM914.41,316.1c15.94-19.05,9.72-38.63,16.85-49.9l2.33,14.78-.39,11.8c0,22.04-8.81,63.77-27.48,63.77h-1.94c-19.31,0,6.87-36.03,10.63-40.44ZM844.67,64.77c1.94-8.68,10.89-29.16,18.92-29.16h5.83c2.33,0,4.93,2.59,4.93,4.93,0,7.52-15.94,25.15-20.22,30.85-6.87,9.07-12.05,35.26-14.13,36.81,0-21.13.78-27.22,4.67-43.42ZM739.42,250.13c-3.76,21-9.46,59.37-9.46,81.92,0,11.54,4.54,24.76-6.87,27.48-10.24-5.44-.52-89.05,2.85-101.23,4.67-16.72,5.83-29.03,13.22-43.68,4.54-9.07,13.87-31.89,20.35-36.68,0,23.33-16.07,49.39-20.09,72.2ZM667.61,435.61c-2.07,6.48-11.28,32.28-11.28,37.72v15.68l5.96,45.11c-12.7-14.39-25.54-69.09-25.54-98.12v-9.85c0-17.63,10.11-41.22,28.39-41.22,4.41,0,8.81,4.02,8.81,7.91,0,15.81-2.2,30.33-6.35,42.77ZM998.4,528.55c-3.63,7.39-5.57,10.76-14.39,13.09-7.78,2.07-15.42.52-15.42-8.43,0-36.03,21.65-60.27,21.65-88.4l.39-3.89-3.89-45.11c4.54,4.54,13.48,31.5,15.42,39.92,3.63,15.29,2.72,32.02,5.31,48.74,2.46,15.94-4.15,34.22-9.07,44.07ZM1112.46,402.04c-14.91-11.54-27.09-21.91-43.68-31.76-6.74-4.02-43.03-28.39-47.18-29.42,0-9.07,8.69-15.42,15.04-18.41,7.52-3.63,20.74-1.3,30.2-1.3,28.26,0,32.79-31.37,12.7-31.37h-5.83c-14.91,0-27.22,13.74-38.37,13.74h-.91c-6.09,0-12.83-6.74-12.83-12.7v-1.04c0-16.33,24.63-23.07,24.63-32.4v-7.78c0-3.89-4.93-4.93-8.94-4.93h-1.94c-13.61,0-18.28,23.59-33.31,23.59-1.81-6.48-3.11-1.43-2.98-13.74v-16.72c0-12.96-1.94-22.29-1.94-32.4,0-12.06,9.72-35.13,14-44.85,2.98-6.48,15.42-37.98,15.42-44.46,0-20.22-16.98-49.77-25.15-64.16-4.8-8.3-15.17-16.85-23.2-22.04-5.06-3.24-25.41-12.96-33.18-12.44l-27.48,3.5h-15.68c-19.96,0-39.79-16.72-64.81-16.72h-8.81c-11.54,0-31.37,9.72-38.37,14.65-10.5,7.65-17.89,17.76-26.18,27.74-15.42,18.67-27.48,45.37-36.03,71.03-8.17,24.63-3.76,17.5-22.81,30.2-12.31,8.3-18.92,15.17-29.55,24.37-8.43,7.39-17.63,19.44-24.5,28.52-6.09,8.04-14.91,26.83-24.89,29.16-14.65-9.85-17.63-44.07-43.16-44.07h-2.98c-5.96,0-11.8,6.74-11.8,11.67,0,37.59,48.22,42.9,48.22,67.79v3.89c0,3.37-1.81,1.43-2.98,5.96h-7.91c-2.33-3.63-7.26-10.89-12.7-10.89h-1.94c-4.93,0-8.94,4.02-8.94,8.81v4.93c0,3.63,12.57,11.41,15.81,13.74,2.46,1.94,11.79,14.39,11.79,17.76v3.89c0,7.39-16.33,26.18-20.35,32.79-6.22,10.24-12.44,25.02-17.11,36.68-9.85,24.63-19.57,53.79-19.57,88.53v6.87c0,26.18,13.35,58.98,23.33,75.7,13.61,22.68,30.07,34.48,55.35,44.85,24.76,10.11,124.43,47.18,152.04,47.18,10.89,0,18.28-6.87,28.52-6.87,9.2,0,46.27,19.44,57.68,23.85,15.04,5.96,45.37,17.11,45.37,36.03v6.87c0,5.96-2.85,8.55-2.85,15.68v12.83c0,4.54,9.72,9.72,15.68,9.72,8.42,0,14.26-6.22,16.2-13.09,3.63-12.44-2.46-16.07-2.46-25.15v-8.81c0-9.72,19.44-18.28,28.26-20.74,13.61-3.63,27.87-1.3,44.07-6.09,23.59-7,52.11-17.11,71.03-28.13,19.57-11.15,39.66-28.78,51.07-47.96,5.96-9.98,13.61-21,18.02-32.15,2.07-5.44,11.41-33.7,11.41-38.63v-21.65c0-40.7-29.03-81.4-52.5-99.68ZM1160.03,516.49c0,22.03-18.92,57.55-28.9,71.29-17.11,23.46-27.61,32.92-52.76,48.22-16.46,10.11-50.68,23.72-73.49,26.7-14.65,1.81-30.07,3.37-45.11,4.93-10.89,1.04-25.54,13.87-25.54,25.53v2.85c0,11.28,6.87,15.04,6.87,24.63v5.83c0,5.31-5.31,11.8-10.76,11.8h-1.04c-5.44,0-9.85-10.76-9.85-17.63v-1.94c0-7.13,5.96-15.17,5.96-20.61v-10.89c0-20.35-39.79-27.87-54.96-35.26-7-3.37-58.59-28.52-61.96-28.52h-3.89c-7.78,0-11.41,12.83-21.65,12.83h-13.74c-18.54,0-53.92-13.09-72.59-17.76-22.68-5.57-47.05-15.04-64.94-25.41-34.87-20.22-62.74-63.77-62.74-118.86v-7.78c0-30.07,9.72-59.62,18.28-81.92,5.44-14.13,8.43-22.03,16.2-33.7,4.02-5.96,20.48-23.33,20.48-29.68v-6.87c0-16.33-34.35-23.33-34.35-40.18,0-2.2.78-2.2,1.94-3.89,9.07.65,14,14.13,21.13,19.05,10.89,7.39,22.04-1.81,22.04-11.28v-3.89c0-17.37-14.13-32.66-25.54-39.27-8.3-4.8-12.7-5.57-19.83-12.44-2.72-2.59-14.52-15.68-14.52-18.92v-2.98c0-4.67,2.72-10.76,6.87-10.76h5.96c18.79,0,33.57,55.87,49.13,55.87h3.89c5.83,0,16.46-27.87,19.57-33.31,8.56-14.65,9.07-19.31,20.35-32.66,8.68-10.24,14.78-19.44,26.05-26.96,6.22-4.28,30.33-17.5,32.92-21.13,4.41-5.83,9.85-30.2,13.48-39.53,4.93-12.96,11.28-25.15,17.24-36.81,8.56-16.72,34.61-47.96,58.85-47.96h10.89c19.05,0,34.87,12.31,54.05,15.55,21.78,3.63,43.68-5.06,63.64,2.2,15.68,5.7,32.28,15.42,40.05,29.68,5.05,9.2,21.91,36.55,21.91,47.7,0,36.16-26.57,68.57-26.57,97.21,0,14.13,2.07,24.24,2.07,39.14,0,11.67-.65,32.4,9.72,32.4,13.35,0,19.31-23.46,32.4-23.46,3.11,0,5.96.91,5.96,3.89v2.98c0,11.92-31.5,6.61-31.5,36.29,0,8.56,7.13,14.65,16.72,14.65h9.85c10.24,0,21.91-11.79,35.39-11.79h4.93c5.96,0,7.78,4.02,9.72,7.91-3.89,16.98-23.46,9.98-42.13,11.92-14.39,1.56-33.44,5.96-33.44,21.39v2.98c0,10.11,37.07,25.92,46.79,31.76,17.76,10.5,31.76,18.41,46.66,31.76,24.24,21.65,53.79,58.46,53.79,103.31v11.8ZM945,370.28h-1.94l-113.68,15.04-.26-1.3h-12.7c-19.31,0-36.29-4.02-36.29-23.59v-9.85c0-11.67,35.13-76.99,41.22-77.51,0,14.52,6.48,45.88,8.94,60.79,2.98,18.02,11.93,36.42,32.28,36.42h15.68c28.78,0,70.77-15.04,70.77-42.26v-15.68l-6.35-79.46.39-48.09c0-12.18,8.17-39.66,10.76-54.05,2.72-15.68,7.91-39.66,7.91-55.87v-13.74c0-20.48-19.18-19.57-40.31-19.57-19.96,0-38.5-8.94-50.94-8.94h-4.93c-24.11,0-29.16,28.78-34.09,47.44-4.67,17.11-12.05,49-12.05,68.44-14.39,7.52-41.74,6.48-56.25,17.37-15.29,11.41-23.98,23.07-31.76,41.87-7.65,18.28-14.26,33.31-17.63,56-2.46,16.07-8.3,51.85-8.3,65.33,0,26.7,5.44,40.18,17.5,55.09,7.26,9.07,32.53,23.46,48.22,23.46h26.57l43.16-3.63,24.63.65.13-1.04,33.31,5.44c2.46,11.67,5.83,14.78,5.83,30.85v2.98c0,13.61-3.63,16.07-5.96,24.5-20.87,0-131.82-49.64-152.17-59.75-17.24-8.68-54.05-31.5-72.59-33.44-35.13-3.76-50.16,19.05-50.16,54.05v12.7c0,36.29,12.96,72.85,25.92,96.83,9.72,18.28,20.35,14.78,40.31,21.39,8.56,2.85,40.44,19.18,41.74,19.18,9.85,0,18.28-29.42,32.4-29.42,2.59,0,62.99,53.92,113.93,53.92h23.59c28,0,74.4-22.29,90.47-35.13,18.54-14.91,42.13-50.94,42.13-83.6v-2.98c0-35.13-1.17-63.12-16.72-83.34-14.78-19.18-38.63-27.48-72.72-27.48ZM914.41,316.1c15.94-19.05,9.72-38.63,16.85-49.9l2.33,14.78-.39,11.8c0,22.04-8.81,63.77-27.48,63.77h-1.94c-19.31,0,6.87-36.03,10.63-40.44ZM844.67,64.77c1.94-8.68,10.89-29.16,18.92-29.16h5.83c2.33,0,4.93,2.59,4.93,4.93,0,7.52-15.94,25.15-20.22,30.85-6.87,9.07-12.05,35.26-14.13,36.81,0-21.13.78-27.22,4.67-43.42ZM739.42,250.13c-3.76,21-9.46,59.37-9.46,81.92,0,11.54,4.54,24.76-6.87,27.48-10.24-5.44-.52-89.05,2.85-101.23,4.67-16.72,5.83-29.03,13.22-43.68,4.54-9.07,13.87-31.89,20.35-36.68,0,23.33-16.07,49.39-20.09,72.2ZM667.61,435.61c-2.07,6.48-11.28,32.28-11.28,37.72v15.68l5.96,45.11c-12.7-14.39-25.54-69.09-25.54-98.12v-9.85c0-17.63,10.11-41.22,28.39-41.22,4.41,0,8.81,4.02,8.81,7.91,0,15.81-2.2,30.33-6.35,42.77ZM998.4,528.55c-3.63,7.39-5.57,10.76-14.39,13.09-7.78,2.07-15.42.52-15.42-8.43,0-36.03,21.65-60.27,21.65-88.4l.39-3.89-3.89-45.11c4.54,4.54,13.48,31.5,15.42,39.92,3.63,15.29,2.72,32.02,5.31,48.74,2.46,15.94-4.15,34.22-9.07,44.07ZM1017.71,397.76c-14.78-19.18-38.63-27.48-72.72-27.48h-1.94l-113.68,15.04-.26-1.3h-12.7c-19.31,0-36.29-4.02-36.29-23.59v-9.85c0-11.67,35.13-76.99,41.22-77.51,0,14.52,6.48,45.88,8.94,60.79,2.98,18.02,11.93,36.42,32.28,36.42h15.68c28.78,0,70.77-15.04,70.77-42.26v-15.68l-6.35-79.46.39-48.09c0-12.18,8.17-39.66,10.76-54.05,2.72-15.68,7.91-39.66,7.91-55.87v-13.74c0-20.48-19.18-19.57-40.31-19.57-19.96,0-38.5-8.94-50.94-8.94h-4.93c-24.11,0-29.16,28.78-34.09,47.44-4.67,17.11-12.05,49-12.05,68.44-14.39,7.52-41.74,6.48-56.25,17.37-15.29,11.41-23.98,23.07-31.76,41.87-7.65,18.28-14.26,33.31-17.63,56-2.46,16.07-8.3,51.85-8.3,65.33,0,26.7,5.44,40.18,17.5,55.09,7.26,9.07,32.53,23.46,48.22,23.46h26.57l43.16-3.63,24.63.65.13-1.04,33.31,5.44c2.46,11.67,5.83,14.78,5.83,30.85v2.98c0,13.61-3.63,16.07-5.96,24.5-20.87,0-131.82-49.64-152.17-59.75-17.24-8.68-54.05-31.5-72.59-33.44-35.13-3.76-50.16,19.05-50.16,54.05v12.7c0,36.29,12.96,72.85,25.92,96.83,9.72,18.28,20.35,14.78,40.31,21.39,8.56,2.85,40.44,19.18,41.74,19.18,9.85,0,18.28-29.42,32.4-29.42,2.59,0,62.99,53.92,113.93,53.92h23.59c28,0,74.4-22.29,90.47-35.13,18.54-14.91,42.13-50.94,42.13-83.6v-2.98c0-35.13-1.17-63.12-16.72-83.34ZM914.41,316.1c15.94-19.05,9.72-38.63,16.85-49.9l2.33,14.78-.39,11.8c0,22.04-8.81,63.77-27.48,63.77h-1.94c-19.31,0,6.87-36.03,10.63-40.44ZM844.67,64.77c1.94-8.68,10.89-29.16,18.92-29.16h5.83c2.33,0,4.93,2.59,4.93,4.93,0,7.52-15.94,25.15-20.22,30.85-6.87,9.07-12.05,35.26-14.13,36.81,0-21.13.78-27.22,4.67-43.42ZM739.42,250.13c-3.76,21-9.46,59.37-9.46,81.92,0,11.54,4.54,24.76-6.87,27.48-10.24-5.44-.52-89.05,2.85-101.23,4.67-16.72,5.83-29.03,13.22-43.68,4.54-9.07,13.87-31.89,20.35-36.68,0,23.33-16.07,49.39-20.09,72.2ZM667.61,435.61c-2.07,6.48-11.28,32.28-11.28,37.72v15.68l5.96,45.11c-12.7-14.39-25.54-69.09-25.54-98.12v-9.85c0-17.63,10.11-41.22,28.39-41.22,4.41,0,8.81,4.02,8.81,7.91,0,15.81-2.2,30.33-6.35,42.77ZM998.4,528.55c-3.63,7.39-5.57,10.76-14.39,13.09-7.78,2.07-15.42.52-15.42-8.43,0-36.03,21.65-60.27,21.65-88.4l.39-3.89-3.89-45.11c4.54,4.54,13.48,31.5,15.42,39.92,3.63,15.29,2.72,32.02,5.31,48.74,2.46,15.94-4.15,34.22-9.07,44.07ZM1017.71,397.76c-14.78-19.18-38.63-27.48-72.72-27.48h-1.94l-113.68,15.04-.26-1.3h-12.7c-19.31,0-36.29-4.02-36.29-23.59v-9.85c0-11.67,35.13-76.99,41.22-77.51,0,14.52,6.48,45.88,8.94,60.79,2.98,18.02,11.93,36.42,32.28,36.42h15.68c28.78,0,70.77-15.04,70.77-42.26v-15.68l-6.35-79.46.39-48.09c0-12.18,8.17-39.66,10.76-54.05,2.72-15.68,7.91-39.66,7.91-55.87v-13.74c0-20.48-19.18-19.57-40.31-19.57-19.96,0-38.5-8.94-50.94-8.94h-4.93c-24.11,0-29.16,28.78-34.09,47.44-4.67,17.11-12.05,49-12.05,68.44-14.39,7.52-41.74,6.48-56.25,17.37-15.29,11.41-23.98,23.07-31.76,41.87-7.65,18.28-14.26,33.31-17.63,56-2.46,16.07-8.3,51.85-8.3,65.33,0,26.7,5.44,40.18,17.5,55.09,7.26,9.07,32.53,23.46,48.22,23.46h26.57l43.16-3.63,24.63.65.13-1.04,33.31,5.44c2.46,11.67,5.83,14.78,5.83,30.85v2.98c0,13.61-3.63,16.07-5.96,24.5-20.87,0-131.82-49.64-152.17-59.75-17.24-8.68-54.05-31.5-72.59-33.44-35.13-3.76-50.16,19.05-50.16,54.05v12.7c0,36.29,12.96,72.85,25.92,96.83,9.72,18.28,20.35,14.78,40.31,21.39,8.56,2.85,40.44,19.18,41.74,19.18,9.85,0,18.28-29.42,32.4-29.42,2.59,0,62.99,53.92,113.93,53.92h23.59c28,0,74.4-22.29,90.47-35.13,18.54-14.91,42.13-50.94,42.13-83.6v-2.98c0-35.13-1.17-63.12-16.72-83.34ZM914.41,316.1c15.94-19.05,9.72-38.63,16.85-49.9l2.33,14.78-.39,11.8c0,22.04-8.81,63.77-27.48,63.77h-1.94c-19.31,0,6.87-36.03,10.63-40.44ZM844.67,64.77c1.94-8.68,10.89-29.16,18.92-29.16h5.83c2.33,0,4.93,2.59,4.93,4.93,0,7.52-15.94,25.15-20.22,30.85-6.87,9.07-12.05,35.26-14.13,36.81,0-21.13.78-27.22,4.67-43.42ZM739.42,250.13c-3.76,21-9.46,59.37-9.46,81.92,0,11.54,4.54,24.76-6.87,27.48-10.24-5.44-.52-89.05,2.85-101.23,4.67-16.72,5.83-29.03,13.22-43.68,4.54-9.07,13.87-31.89,20.35-36.68,0,23.33-16.07,49.39-20.09,72.2ZM667.61,435.61c-2.07,6.48-11.28,32.28-11.28,37.72v15.68l5.96,45.11c-12.7-14.39-25.54-69.09-25.54-98.12v-9.85c0-17.63,10.11-41.22,28.39-41.22,4.41,0,8.81,4.02,8.81,7.91,0,15.81-2.2,30.33-6.35,42.77ZM998.4,528.55c-3.63,7.39-5.57,10.76-14.39,13.09-7.78,2.07-15.42.52-15.42-8.43,0-36.03,21.65-60.27,21.65-88.4l.39-3.89-3.89-45.11c4.54,4.54,13.48,31.5,15.42,39.92,3.63,15.29,2.72,32.02,5.31,48.74,2.46,15.94-4.15,34.22-9.07,44.07ZM1017.71,397.76c-14.78-19.18-38.63-27.48-72.72-27.48h-1.94l-113.68,15.04-.26-1.3h-12.7c-19.31,0-36.29-4.02-36.29-23.59v-9.85c0-11.67,35.13-76.99,41.22-77.51,0,14.52,6.48,45.88,8.94,60.79,2.98,18.02,11.93,36.42,32.28,36.42h15.68c28.78,0,70.77-15.04,70.77-42.26v-15.68l-6.35-79.46.39-48.09c0-12.18,8.17-39.66,10.76-54.05,2.72-15.68,7.91-39.66,7.91-55.87v-13.74c0-20.48-19.18-19.57-40.31-19.57-19.96,0-38.5-8.94-50.94-8.94h-4.93c-24.11,0-29.16,28.78-34.09,47.44-4.67,17.11-12.05,49-12.05,68.44-14.39,7.52-41.74,6.48-56.25,17.37-15.29,11.41-23.98,23.07-31.76,41.87-7.65,18.28-14.26,33.31-17.63,56-2.46,16.07-8.3,51.85-8.3,65.33,0,26.7,5.44,40.18,17.5,55.09,7.26,9.07,32.53,23.46,48.22,23.46h26.57l43.16-3.63,24.63.65.13-1.04,33.31,5.44c2.46,11.67,5.83,14.78,5.83,30.85v2.98c0,13.61-3.63,16.07-5.96,24.5-20.87,0-131.82-49.64-152.17-59.75-17.24-8.68-54.05-31.5-72.59-33.44-35.13-3.76-50.16,19.05-50.16,54.05v12.7c0,36.29,12.96,72.85,25.92,96.83,9.72,18.28,20.35,14.78,40.31,21.39,8.56,2.85,40.44,19.18,41.74,19.18,9.85,0,18.28-29.42,32.4-29.42,2.59,0,62.99,53.92,113.93,53.92h23.59c28,0,74.4-22.29,90.47-35.13,18.54-14.91,42.13-50.94,42.13-83.6v-2.98c0-35.13-1.17-63.12-16.72-83.34ZM914.41,316.1c15.94-19.05,9.72-38.63,16.85-49.9l2.33,14.78-.39,11.8c0,22.04-8.81,63.77-27.48,63.77h-1.94c-19.31,0,6.87-36.03,10.63-40.44ZM844.67,64.77c1.94-8.68,10.89-29.16,18.92-29.16h5.83c2.33,0,4.93,2.59,4.93,4.93,0,7.52-15.94,25.15-20.22,30.85-6.87,9.07-12.05,35.26-14.13,36.81,0-21.13.78-27.22,4.67-43.42ZM739.42,250.13c-3.76,21-9.46,59.37-9.46,81.92,0,11.54,4.54,24.76-6.87,27.48-10.24-5.44-.52-89.05,2.85-101.23,4.67-16.72,5.83-29.03,13.22-43.68,4.54-9.07,13.87-31.89,20.35-36.68,0,23.33-16.07,49.39-20.09,72.2ZM667.61,435.61c-2.07,6.48-11.28,32.28-11.28,37.72v15.68l5.96,45.11c-12.7-14.39-25.54-69.09-25.54-98.12v-9.85c0-17.63,10.11-41.22,28.39-41.22,4.41,0,8.81,4.02,8.81,7.91,0,15.81-2.2,30.33-6.35,42.77ZM998.4,528.55c-3.63,7.39-5.57,10.76-14.39,13.09-7.78,2.07-15.42.52-15.42-8.43,0-36.03,21.65-60.27,21.65-88.4l.39-3.89-3.89-45.11c4.54,4.54,13.48,31.5,15.42,39.92,3.63,15.29,2.72,32.02,5.31,48.74,2.46,15.94-4.15,34.22-9.07,44.07ZM1017.71,397.76c-14.78-19.18-38.63-27.48-72.72-27.48h-1.94l-113.68,15.04-.26-1.3h-12.7c-19.31,0-36.29-4.02-36.29-23.59v-9.85c0-11.67,35.13-76.99,41.22-77.51,0,14.52,6.48,45.88,8.94,60.79,2.98,18.02,11.93,36.42,32.28,36.42h15.68c28.78,0,70.77-15.04,70.77-42.26v-15.68l-6.35-79.46.39-48.09c0-12.18,8.17-39.66,10.76-54.05,2.72-15.68,7.91-39.66,7.91-55.87v-13.74c0-20.48-19.18-19.57-40.31-19.57-19.96,0-38.5-8.94-50.94-8.94h-4.93c-24.11,0-29.16,28.78-34.09,47.44-4.67,17.11-12.05,49-12.05,68.44-14.39,7.52-41.74,6.48-56.25,17.37-15.29,11.41-23.98,23.07-31.76,41.87-7.65,18.28-14.26,33.31-17.63,56-2.46,16.07-8.3,51.85-8.3,65.33,0,26.7,5.44,40.18,17.5,55.09,7.26,9.07,32.53,23.46,48.22,23.46h26.57l43.16-3.63,24.63.65.13-1.04,33.31,5.44c2.46,11.67,5.83,14.78,5.83,30.85v2.98c0,13.61-3.63,16.07-5.96,24.5-20.87,0-131.82-49.64-152.17-59.75-17.24-8.68-54.05-31.5-72.59-33.44-35.13-3.76-50.16,19.05-50.16,54.05v12.7c0,36.29,12.96,72.85,25.92,96.83,9.72,18.28,20.35,14.78,40.31,21.39,8.56,2.85,40.44,19.18,41.74,19.18,9.85,0,18.28-29.42,32.4-29.42,2.59,0,62.99,53.92,113.93,53.92h23.59c28,0,74.4-22.29,90.47-35.13,18.54-14.91,42.13-50.94,42.13-83.6v-2.98c0-35.13-1.17-63.12-16.72-83.34ZM914.41,316.1c15.94-19.05,9.72-38.63,16.85-49.9l2.33,14.78-.39,11.8c0,22.04-8.81,63.77-27.48,63.77h-1.94c-19.31,0,6.87-36.03,10.63-40.44ZM844.67,64.77c1.94-8.68,10.89-29.16,18.92-29.16h5.83c2.33,0,4.93,2.59,4.93,4.93,0,7.52-15.94,25.15-20.22,30.85-6.87,9.07-12.05,35.26-14.13,36.81,0-21.13.78-27.22,4.67-43.42ZM739.42,250.13c-3.76,21-9.46,59.37-9.46,81.92,0,11.54,4.54,24.76-6.87,27.48-10.24-5.44-.52-89.05,2.85-101.23,4.67-16.72,5.83-29.03,13.22-43.68,4.54-9.07,13.87-31.89,20.35-36.68,0,23.33-16.07,49.39-20.09,72.2ZM667.61,435.61c-2.07,6.48-11.28,32.28-11.28,37.72v15.68l5.96,45.11c-12.7-14.39-25.54-69.09-25.54-98.12v-9.85c0-17.63,10.11-41.22,28.39-41.22,4.41,0,8.81,4.02,8.81,7.91,0,15.81-2.2,30.33-6.35,42.77ZM998.4,528.55c-3.63,7.39-5.57,10.76-14.39,13.09-7.78,2.07-15.42.52-15.42-8.43,0-36.03,21.65-60.27,21.65-88.4l.39-3.89-3.89-45.11c4.54,4.54,13.48,31.5,15.42,39.92,3.63,15.29,2.72,32.02,5.31,48.74,2.46,15.94-4.15,34.22-9.07,44.07ZM1017.71,397.76c-14.78-19.18-38.63-27.48-72.72-27.48h-1.94l-113.68,15.04-.26-1.3h-12.7c-19.31,0-36.29-4.02-36.29-23.59v-9.85c0-11.67,35.13-76.99,41.22-77.51,0,14.52,6.48,45.88,8.94,60.79,2.98,18.02,11.93,36.42,32.28,36.42h15.68c28.78,0,70.77-15.04,70.77-42.26v-15.68l-6.35-79.46.39-48.09c0-12.18,8.17-39.66,10.76-54.05,2.72-15.68,7.91-39.66,7.91-55.87v-13.74c0-20.48-19.18-19.57-40.31-19.57-19.96,0-38.5-8.94-50.94-8.94h-4.93c-24.11,0-29.16,28.78-34.09,47.44-4.67,17.11-12.05,49-12.05,68.44-14.39,7.52-41.74,6.48-56.25,17.37-15.29,11.41-23.98,23.07-31.76,41.87-7.65,18.28-14.26,33.31-17.63,56-2.46,16.07-8.3,51.85-8.3,65.33,0,26.7,5.44,40.18,17.5,55.09,7.26,9.07,32.53,23.46,48.22,23.46h26.57l43.16-3.63,24.63.65.13-1.04,33.31,5.44c2.46,11.67,5.83,14.78,5.83,30.85v2.98c0,13.61-3.63,16.07-5.96,24.5-20.87,0-131.82-49.64-152.17-59.75-17.24-8.68-54.05-31.5-72.59-33.44-35.13-3.76-50.16,19.05-50.16,54.05v12.7c0,36.29,12.96,72.85,25.92,96.83,9.72,18.28,20.35,14.78,40.31,21.39,8.56,2.85,40.44,19.18,41.74,19.18,9.85,0,18.28-29.42,32.4-29.42,2.59,0,62.99,53.92,113.93,53.92h23.59c28,0,74.4-22.29,90.47-35.13,18.54-14.91,42.13-50.94,42.13-83.6v-2.98c0-35.13-1.17-63.12-16.72-83.34ZM914.41,316.1c15.94-19.05,9.72-38.63,16.85-49.9l2.33,14.78-.39,11.8c0,22.04-8.81,63.77-27.48,63.77h-1.94c-19.31,0,6.87-36.03,10.63-40.44ZM844.67,64.77c1.94-8.68,10.89-29.16,18.92-29.16h5.83c2.33,0,4.93,2.59,4.93,4.93,0,7.52-15.94,25.15-20.22,30.85-6.87,9.07-12.05,35.26-14.13,36.81,0-21.13.78-27.22,4.67-43.42ZM739.42,250.13c-3.76,21-9.46,59.37-9.46,81.92,0,11.54,4.54,24.76-6.87,27.48-10.24-5.44-.52-89.05,2.85-101.23,4.67-16.72,5.83-29.03,13.22-43.68,4.54-9.07,13.87-31.89,20.35-36.68,0,23.33-16.07,49.39-20.09,72.2ZM667.61,435.61c-2.07,6.48-11.28,32.28-11.28,37.72v15.68l5.96,45.11c-12.7-14.39-25.54-69.09-25.54-98.12v-9.85c0-17.63,10.11-41.22,28.39-41.22,4.41,0,8.81,4.02,8.81,7.91,0,15.81-2.2,30.33-6.35,42.77ZM998.4,528.55c-3.63,7.39-5.57,10.76-14.39,13.09-7.78,2.07-15.42.52-15.42-8.43,0-36.03,21.65-60.27,21.65-88.4l.39-3.89-3.89-45.11c4.54,4.54,13.48,31.5,15.42,39.92,3.63,15.29,2.72,32.02,5.31,48.74,2.46,15.94-4.15,34.22-9.07,44.07ZM1129.06,229.65c-10.37,7-27.48,25.4-30.33,29.68,6.48-.52,18.54-3.5,25.28-5.06,4.15-1.04,12.18-1.3,17.24-3.76,3.24-1.56,8.81-3.5,9.07-11.28.39-12.57-12.83-15.29-21.26-9.59ZM1119.34,248.57c1.04-3.89,13.61-17.63,19.57-17.63,3.24,0,8.94,2.2,8.94,4.8,0,12.31-18.41,10.5-28.52,12.83Z"/>
    <path class="cls-1" d="M647.52,641.19c-10.76,0-33.05,15.68-39.27,15.68h-9.85c-24.37,0-72.07-33.05-89.96-43.55-14.91-8.68-67.14-46.27-67.14-65.46,0-14.26,21.52-28.52,28.65-39.92,15.68-25.02,6.74-27.09,12.05-55.87,4.67-25.53,57.55-46.53,57.55-78.81,0-16.85-32.02-25.28-44.85-31.76-18.41-9.2-32.92-16.2-50.03-26.57-16.07-9.85-30.07-20.74-44.85-31.76-10.63-7.91-31.24-28.65-46.92-28.65h-10.76c-32.15,0-67.53,47.7-83.73,67.4-14.39,17.63-21.39,22.42-44.72,30.85-15.17,5.31-38.5,16.46-58.07,16.46h-1.04c-15.81,0-27.35-12.18-32.66-23.2-8.68-18.02-.39-25.15-20.35-35.65-2.2,1.17-5.83,2.59-5.83,5.96v3.89c0,11.15,15.17,18.15,20.22,25.92,3.89,5.96,12.18,23.98,12.18,32.92v10.76c0,13.87-13.61,32.4-27.61,32.4h-5.83c-18.79,0-15.94-31.37-32.4-31.37h-2.98c-4.8,0-5.83,7.52-2.98,10.89.91,1.17,8.04,7,9.72,7.91,11.02,6.87,11.79,4.67,18.79,16.59,8.55,14.39-2.07,48.87,13.22,56.38,18.28,8.81,36.03,3.5,36.94,32.79.52,19.18-.39,47.83-1.04,68.83-1.3,45.76,6.22,84.12,15.68,121.58,4.41,17.37,10.24,38.76,13.74,56,2.98,15.17,15.29,37.98,34.35,35.26l17.63-2.33,5.96.39c3.63,0,3.5,1.17,6.87,1.94.39,4.8,1.94,6.22,1.94,11.8v2.98c0,6.87-4.8,12.31-4.8,21.52v1.04c0,5.19,4.41,15.68,8.81,15.68h1.94c3.76,0,6.87-8.43,6.87-11.8v-1.94c0-13.09-5.96-21.39-5.96-31.37,0-19.05,17.24-33.05,29.42-40.31,8.56-5.06,35-23.46,45.24-23.46,9.59,0,27.87,43.94,33.05,53.27,11.15,20.09,21,34.48,35,51.46,12.7,15.55,29.29,28.52,45.63,40.7,14.26,10.89,40.57,22.94,40.57,45.88v33.44c0,19.44-7.91,30.59-7.91,46.01v4.02c0,8.94,3.5,19.57,11.79,19.57h3.89c4.92,0,9.85-8.17,9.85-10.76,0-.26-5.7-25.28-6.22-27.09-2.85-8.42-4.54-18.15-4.54-28.9v-2.85c0-20.61,4.28-38.37,14-49.9,5.57-6.61,28.65-22.81,39.92-22.81h4.93c19.83,0,20.61,28.91,20.61,50.03l10.37,5.05.39-1.04c.52-2.2,1.04-2.33,1.04-4.93v-1.04c0-10.24-4.15-10.63-6.74-17.76-1.81-4.93-2.85-15.29-3.11-21.52-.65-12.83,5.57-30.85,10.11-39.02,10.37-19.18,30.07-36.29,43.29-53.92,16.46-21.91,25.02-34.48,36.94-61.05,7.39-16.33,15.68-57.94,15.68-81.53v-1.94c0-8.04-6.09-23.46-12.7-23.46ZM628.86,703.92c0,12.18-29.29,62.09-36.16,70.77-11.28,14.26-35.52,49-58.07,49-46.4,0-85.94-86.33-105.9-118.99-5.7-9.33-15.17-26.31-19.44-36.55-7.13-17.5-12.57-20.74-22.04-33.83-8.04-11.41-40.57-57.94-54.96-57.94-3.24,0-9.72,3.24-9.72,6.87v3.89l-1.17.26,9.98,60.66v.91c0,22.81-39.92,53.01-62.86,53.01h-2.98c-21.52,0-37.2-114.19-36.68-147.25l2.33-92.16c.39-14.13-1.81-40.96-6.22-49.77-3.76-7.91-28.26-17.11-38.89-18.02v-1.94c8.55-.78,33.7-12.31,51.46-15.29,19.44-3.24,36.94-8.04,55.48-11.28,21.39-3.5,32.28-8.68,36.03-30.72,1.56-9.46.26-21.26,1.81-31.5,1.17-7.52,6.48-21.13,13.22-21.13,15.04,0,29.81,15.17,39.01,22.94,11.41,9.59,23.2,18.41,35.39,27.35,21,15.68,57.03,31.37,85.68,39.02v4.93c-19.96,10.5-96.18-.91-96.18,30.46,0,34.87,39.27,39.27,39.27,78.42v2.98c0,16.07-44.59,46.27-58.98,50.03,3.11,11.67,79.46,78.94,93.46,90.21,20.09,16.07,83.86,71.68,112.77,71.68,16.46,0,26.05-9.72,30.46-9.72,3.37,0,3.89,4.28,3.89,7.78v4.93Z"/>
  </g>
  <path class="cls-1" d="M1106.24,401.39c-14.91-13.35-28.91-21.26-46.66-31.76-9.72-5.83-46.79-21.65-46.79-31.76v-2.98c0-15.42,19.05-19.83,33.44-21.39,18.67-1.94,38.24,5.06,42.13-11.92-1.94-3.89-3.76-7.91-9.72-7.91h-4.93c-13.48,0-25.15,11.79-35.39,11.79h-9.85c-9.59,0-16.72-6.09-16.72-14.65,0-29.68,31.5-24.37,31.5-36.29v-2.98c0-2.98-2.85-3.89-5.96-3.89-13.09,0-19.05,23.46-32.4,23.46-10.37,0-9.72-20.74-9.72-32.4,0-14.91-2.07-25.02-2.07-39.14,0-28.65,26.57-61.05,26.57-97.21,0-11.15-16.85-38.5-21.91-47.7-7.78-14.26-24.37-23.98-40.05-29.68-19.96-7.26-41.87,1.43-63.64-2.2-19.18-3.24-35-15.55-54.05-15.55h-10.89c-24.24,0-50.29,31.24-58.85,47.96-5.96,11.67-12.31,23.85-17.24,36.81-3.63,9.33-9.07,33.7-13.48,39.53-2.59,3.63-26.7,16.85-32.92,21.13-11.28,7.52-17.37,16.72-26.05,26.96-11.28,13.35-11.79,18.02-20.35,32.66-3.11,5.44-13.74,33.31-19.57,33.31h-3.89c-15.55,0-30.33-55.87-49.13-55.87h-5.96c-4.15,0-6.87,6.09-6.87,10.76v2.98c0,3.24,11.79,16.33,14.52,18.92,7.13,6.87,11.54,7.65,19.83,12.44,11.41,6.61,25.54,21.91,25.54,39.27v3.89c0,9.46-11.15,18.67-22.04,11.28-7.13-4.93-12.05-18.41-21.13-19.05-1.17,1.68-1.94,1.68-1.94,3.89,0,16.85,34.35,23.85,34.35,40.18v6.87c0,6.35-16.46,23.72-20.48,29.68-7.78,11.67-10.76,19.57-16.2,33.7-8.55,22.29-18.28,51.85-18.28,81.92v7.78c0,55.09,27.87,98.64,62.74,118.86,17.89,10.37,42.26,19.83,64.94,25.41,18.67,4.67,54.05,17.76,72.59,17.76h13.74c10.24,0,13.87-12.83,21.65-12.83h3.89c3.37,0,54.96,25.15,61.96,28.52,15.17,7.39,54.96,14.91,54.96,35.26v10.89c0,5.44-5.96,13.48-5.96,20.61v1.94c0,6.87,4.41,17.63,9.85,17.63h1.04c5.44,0,10.76-6.48,10.76-11.8v-5.83c0-9.59-6.87-13.35-6.87-24.63v-2.85c0-11.67,14.65-24.5,25.54-25.53,15.04-1.56,30.46-3.11,45.11-4.93,22.81-2.98,57.03-16.59,73.49-26.7,25.15-15.29,35.65-24.76,52.76-48.22,9.98-13.74,28.9-49.26,28.9-71.29v-11.8c0-44.85-29.55-81.66-53.79-103.31ZM1034.43,484.09c0,32.66-23.59,68.7-42.13,83.6-16.07,12.83-62.48,35.13-90.47,35.13h-23.59c-50.94,0-111.34-53.92-113.93-53.92-14.13,0-22.55,29.42-32.4,29.42-1.3,0-33.18-16.33-41.74-19.18-19.96-6.61-30.59-3.11-40.31-21.39-12.96-23.98-25.92-60.53-25.92-96.83v-12.7c0-35,15.04-57.81,50.16-54.05,18.54,1.94,55.35,24.76,72.59,33.44,20.35,10.11,131.3,59.75,152.17,59.75,2.33-8.42,5.96-10.89,5.96-24.5v-2.98c0-16.07-3.37-19.18-5.83-30.85l-33.31-5.44-.13,1.04-24.63-.65-43.16,3.63h-26.57c-15.68,0-40.96-14.39-48.22-23.46-12.05-14.91-17.5-28.39-17.5-55.09,0-13.48,5.83-49.26,8.3-65.33,3.37-22.68,9.98-37.72,17.63-56,7.78-18.79,16.46-30.46,31.76-41.87,14.52-10.89,41.87-9.85,56.25-17.37,0-19.44,7.39-51.33,12.05-68.44,4.93-18.67,9.98-47.44,34.09-47.44h4.93c12.44,0,30.98,8.94,50.94,8.94,21.13,0,40.31-.91,40.31,19.57v13.74c0,16.2-5.18,40.18-7.91,55.87-2.59,14.39-10.76,41.87-10.76,54.05l-.39,48.09,6.35,79.46v15.68c0,27.22-42,42.26-70.77,42.26h-15.68c-20.35,0-29.29-18.41-32.28-36.42-2.46-14.91-8.94-46.27-8.94-60.79-6.09.52-41.22,65.85-41.22,77.51v9.85c0,19.57,16.98,23.59,36.29,23.59h12.7l.26,1.3,113.68-15.04h1.94c34.09,0,57.94,8.3,72.72,27.48,15.55,20.22,16.72,48.22,16.72,83.34v2.98Z"/>
</svg>